<?xml version="1.0" encoding="UTF-8" standalone="no"?>
<!-- Created with Inkscape (http://www.inkscape.org/) -->

<svg
   width="80mm"
   height="50.000999mm"
   viewBox="0 0 79.999996 50.000997"
   version="1.1"
   id="svg1"
   inkscape:version="1.3.2 (091e20e, 2023-11-25, custom)"
   sodipodi:docname="EgWTid0.svg"
   inkscape:export-filename="EgWTid.pdf"
   inkscape:export-xdpi="96"
   inkscape:export-ydpi="96"
   xmlns:inkscape="http://www.inkscape.org/namespaces/inkscape"
   xmlns:sodipodi="http://sodipodi.sourceforge.net/DTD/sodipodi-0.dtd"
   xmlns="http://www.w3.org/2000/svg"
   xmlns:svg="http://www.w3.org/2000/svg">
  <sodipodi:namedview
     id="namedview1"
     pagecolor="#ffffff"
     bordercolor="#000000"
     borderopacity="0.25"
     inkscape:showpageshadow="2"
     inkscape:pageopacity="0.0"
     inkscape:pagecheckerboard="0"
     inkscape:deskcolor="#d1d1d1"
     inkscape:document-units="mm"
     showgrid="true"
     inkscape:zoom="4.710799"
     inkscape:cx="151.03595"
     inkscape:cy="115.90391"
     inkscape:window-width="2144"
     inkscape:window-height="1408"
     inkscape:window-x="400"
     inkscape:window-y="43"
     inkscape:window-maximized="0"
     inkscape:current-layer="layer1">
    <inkscape:grid
       id="grid1"
       units="px"
       originx="0"
       originy="0"
       spacingx="0.26458333"
       spacingy="0.26458334"
       empcolor="#0099e5"
       empopacity="0.30196078"
       color="#0099e5"
       opacity="0.14901961"
       empspacing="5"
       dotted="false"
       gridanglex="30"
       gridanglez="30"
       visible="true" />
  </sodipodi:namedview>
  <defs
     id="defs1" />
  <g
     inkscape:label="Layer 1"
     inkscape:groupmode="layer"
     id="layer1">
    <path
       style="fill:none;stroke:#000000;stroke-width:0.331642;stroke-dasharray:none"
       d="M 8.4711275,20.318695 C 7.2060577,13.513098 10.283546,8.8775708 18.546552,9.2688873 33.831017,9.9927237 31.852662,21.831048 25.578376,23.343403 19.304089,24.855759 9.7361973,27.124291 8.4711275,20.318695 Z"
       id="path3"
       sodipodi:nodetypes="zssz" />
    <text
       xml:space="preserve"
       style="font-style:italic;font-weight:500;font-size:4.9389px;font-family:'STIX Two Text';-inkscape-font-specification:'STIX Two Text Medium Italic';fill:none;stroke:#000000;stroke-width:0.4;stroke-dasharray:none;stroke-opacity:1"
       x="37.041668"
       y="14.552084"
       id="text28"><tspan
         sodipodi:role="line"
         id="tspan28"
         style="stroke:#000000;stroke-width:0.4;stroke-opacity:1"
         x="37.041668"
         y="14.552084" /></text>
    <text
       xml:space="preserve"
       style="font-style:italic;font-weight:500;font-size:4.9389px;font-family:'STIX Two Text';-inkscape-font-specification:'STIX Two Text Medium Italic';fill:#000000;fill-opacity:1;stroke:none;stroke-width:0.4;stroke-dasharray:none;stroke-opacity:1"
       x="43.002899"
       y="17.696747"
       id="text29"><tspan
         sodipodi:role="line"
         id="tspan29"
         style="fill:#000000;fill-opacity:1;stroke:none;stroke-width:0.4"
         x="43.002899"
         y="17.696747">=</tspan></text>
    <g
       inkscape:label=""
       transform="translate(34.997859,23.914451)"
       id="g1">
      <g
         id="g9400"
         transform="matrix(0.352778,0,0,0.352778,-104.94,-2.00695)">
        <g
           transform="translate(278.876,7.48)"
           id="g7847">
          <g
             class="typst-text"
             transform="scale(1,-1)"
             id="g6973">
            <g
               id="g2228">
              <path
                 d="M 5.4,6.83 C 5.25,6.83 5.18,6.75 5.18,6.5899997 5.18,6.5 5.25,6.45 5.39,6.44 5.8199997,6.44 6.0299997,6.31 6.0299997,6.0499997 6.0299997,5.99 6.02,5.92 6,5.85 L 5.1099997,2.32 C 4.96,1.75 4.67,1.26 4.24,0.84 3.77,0.39 3.25,0.17 2.69,0.17 1.9499999,0.17 1.52,0.66999996 1.52,1.41 L 1.53,1.5 c 0,0.1899999 0.03,0.41 0.1,0.6699998 L 2.59,6.02 c 0.05,0.21 0.14,0.3399997 0.27,0.39 0.06,0.02 0.23,0.03 0.5199999,0.03 0.26,0 0.3700001,0 0.3700001,0.24 0,0.1 -0.06,0.15 -0.17,0.15 0,0 -1.27,-0.03 -1.27,-0.03 0,0 -1.27,0.03 -1.27,0.03 C 0.88,6.83 0.81,6.74 0.81,6.5899997 0.81,6.52 0.84,6.47 0.89,6.46 0.98999995,6.45 1.0699999,6.44 1.12,6.44 1.43,6.43 1.61,6.41 1.66,6.4 1.71,6.39 1.73,6.36 1.73,6.31 1.73,6.29 1.72,6.22 1.69,6.1099997 L 0.74,2.3 C 0.69,2.11 0.67,1.92 0.67,1.7199999 0.66999996,0.57 1.5,-0.22 2.6499999,-0.22 3.3,-0.22 3.8999999,0.03 4.45,0.53999996 4.98,1.02 5.3199997,1.5799999 5.48,2.23 L 6.3599997,5.74 C 6.49,6.25 6.77,6.43 7.39,6.44 7.5299997,6.45 7.6,6.53 7.6,6.68 V 6.72 C 7.57,6.79 7.52,6.83 7.43,6.83 7.24,6.83 6.6099997,6.8 6.42,6.8 6.23,6.8 5.5899997,6.83 5.4,6.83 Z"
                 id="path6716" />
            </g>
          </g>
        </g>
        <g
           transform="translate(285.706,4.597)"
           id="g6583">
          <g
             class="typst-group"
             id="g4917">
            <g
               id="g2914">
              <g
                 transform="translate(0,5.353)"
                 id="g5270">
                <g
                   class="typst-text"
                   transform="scale(1,-1)"
                   id="g1397">
                  <g
                     id="g5006">
                    <path
                       d="m 1.75,-0.014 c 0.273,0 0.546,0.10500001 0.812,0.322 -0.1959998,-0.83300004 -0.329,-1.484 -1.26,-1.484 -0.1749999,0 -0.32899995,0.007 -0.455,0.028 0.11200005,0.077 0.168,0.18899995 0.168,0.33599996 C 1.015,-0.623 0.91700006,-0.532 0.721,-0.532 c -0.238,0 -0.42,-0.21000004 -0.42,-0.448 0,-0.21 0.12600002,-0.3430001 0.378,-0.3920001 0.18900003,-0.035 0.3990001,-0.056 0.63,-0.056 0.378,0 0.714,0.07 1.0080002,0.2100001 C 2.674,-1.043 2.891,-0.791 2.9750001,-0.462 l 0.7490001,3.017 c 0.021,0.077 0.028,0.126 0.028,0.154 0,0.1610001 -0.084,0.245 -0.259,0.245 C 3.332,2.954 3.227,2.877 3.164,2.73 2.996,2.9680002 2.765,3.0870001 2.464,3.0870001 1.995,3.0870001 1.582,2.884 1.218,2.4780002 0.85400003,2.072 0.67200005,1.6240001 0.67200005,1.141 0.67200005,0.49 1.099,-0.014 1.75,-0.014 Z M 2.8070002,2.709 C 2.9680002,2.562 3.045,2.4220002 3.052,2.282 L 2.723,0.938 C 2.7020001,0.861 2.66,0.78400004 2.5830002,0.693 2.3240001,0.38500002 2.058,0.231 1.771,0.231 c -0.329,0 -0.49,0.21 -0.49,0.63 0,0.168 0.042,0.4060001 0.1190001,0.7070001 C 1.477,1.8690001 1.554,2.086 1.638,2.226 c 0.245,0.406 0.5180001,0.609 0.826,0.609 0.1330001,0 0.252,-0.042 0.3430002,-0.126 z"
                       id="path6914" />
                  </g>
                </g>
              </g>
              <g
                 transform="translate(3.948,3.33)"
                 id="g9982">
                <g
                   class="typst-text"
                   transform="scale(1,-1)"
                   id="g2630">
                  <g
                     id="g7111">
                    <path
                       d="M 3.47,1.38 H 0.42 C 0.32,1.38 0.28,1.315 0.28,1.25 0.28,1.185 0.32,1.12 0.42,1.12 h 3.05 c 0.1,0 0.14,0.065 0.14,0.13 0,0.06 -0.04,0.13 -0.14,0.13 z"
                       id="path3102" />
                  </g>
                </g>
              </g>
              <g
                 transform="translate(7.838,3.33)"
                 id="g3295">
                <g
                   class="typst-text"
                   transform="scale(1,-1)"
                   id="g7070">
                  <g
                     id="g2314">
                    <path
                       d="M 1.8,3.33 C 1.5699999,3.12 1.245,3.0149999 0.82,3.0149999 H 0.715 v -0.26 H 0.82 c 0.2549999,0 0.485,0.045 0.695,0.1300001 V 0.445 C 1.515,0.39 1.51,0.35 1.495,0.32999998 1.4699999,0.28 1.31,0.255 1.015,0.255 H 0.75 V 0 C 0.945,0.015 1.28,0.02 1.76,0.02 2.24,0.02 2.575,0.015 2.77,0 V 0.255 H 2.5049999 C 2.21,0.255 2.05,0.28 2.02,0.32999998 2.01,0.35 2.0049999,0.39 2.0049999,0.445 V 3.1599998 C 2.0049999,3.33 1.985,3.33 1.8,3.33 Z"
                       id="path4667" />
                  </g>
                </g>
              </g>
            </g>
          </g>
        </g>
        <g
           transform="translate(297.901,7.48)"
           id="g8384">
          <g
             class="typst-text"
             transform="scale(1,-1)"
             id="g8900">
            <g
               id="g2293">
              <path
                 d="m 3.1799998,-2.48 c 0.09,0 0.1400002,0.05 0.1400002,0.14 0,0.03 -0.02,0.07 -0.05,0.11 C 2.75,-1.8299999 2.33,-1.17 2.02,-0.26 1.75,0.53 1.61,1.31 1.61,2.08 v 0.8399998 c 0,0.77 0.14,1.5500002 0.41,2.34 C 2.33,6.17 2.75,6.83 3.27,7.23 3.3,7.26 3.32,7.3 3.32,7.3399997 3.32,7.43 3.27,7.48 3.1799998,7.48 c -0.01,0 -0.04,-0.01 -0.07,-0.03 C 2.51,6.99 2.01,6.31 1.5999999,5.4 1.2099999,4.5299997 1.01,3.7099998 1.01,2.9199998 V 2.08 C 1.01,1.29 1.2099999,0.47 1.5999999,-0.39999998 2.01,-1.31 2.51,-1.99 3.11,-2.45 c 0.03,-0.02 0.06,-0.03 0.07,-0.03 z"
                 id="path7450" />
            </g>
          </g>
        </g>
        <g
           transform="translate(301.791,7.48)"
           id="g4116">
          <g
             class="typst-text"
             transform="scale(1,-1)"
             id="g3146">
            <g
               id="g5322">
              <path
                 d="M 5.94,0.16 C 5.94,0.05 6,0 6.1299996,0 L 7.3599997,0.03 C 7.5899997,0.04 8.4,0 8.59,0 c 0.15,0 0.23,0.08 0.23,0.24 0,0.1 -0.1,0.15 -0.31,0.15 -0.410001,0 -0.6100004,0.04 -0.6100004,0.13 0,0.03 0.02,0.1 0.05,0.23 L 9.2699995,6.02 C 9.32,6.23 9.42,6.3599997 9.55,6.41 c 0.06,0.02 0.24,0.03 0.53,0.03 0.25,0 0.36,0.01 0.36,0.24 0,0.1 -0.1,0.15 -0.31,0.15 H 8.82 C 8.53,6.83 8.53,6.81 8.4,6.62 L 4.8399997,1.0799999 4.08,6.5699997 C 4.04,6.8199997 4.02,6.83 3.73,6.83 H 2.37 C 2.1499999,6.83 2.04,6.82 2.04,6.6 2.04,6.49 2.1499999,6.44 2.36,6.44 2.56,6.44 2.97,6.47 2.97,6.31 2.97,6.29 2.96,6.23 2.93,6.1299996 L 1.67,1.1 C 1.5799999,0.71999997 1.35,0.48999998 1,0.42 0.75,0.39 0.42,0.42999998 0.42,0.16 0.42,0.05 0.48,0 0.59999996,0 0.78,0 1.41,0.03 1.5899999,0.03 1.78,0.03 2.4199998,0 2.61,0 c 0.15,0 0.22,0.08 0.22,0.24 0,0.09 -0.07,0.14 -0.22,0.15 -0.42,0 -0.6300001,0.13 -0.6300001,0.39 0,0.04 0.01,0.11 0.04,0.22 L 3.32,6.21 4.15,0.26 C 4.18,0.09 4.24,0 4.3399997,0 4.42,0 4.5,0.07 4.5899997,0.19999999 L 8.48,6.27 7.12,0.82 C 7.06,0.59999996 6.96,0.47 6.81,0.42 6.75,0.39999998 6.56,0.39 6.25,0.39 6.04,0.39 5.94,0.37 5.94,0.16 Z"
                 id="path8033" />
            </g>
          </g>
        </g>
        <g
           transform="translate(312.511,7.48)"
           id="g3241">
          <g
             class="typst-text"
             transform="scale(1,-1)"
             id="g5994">
            <g
               id="g5558">
              <path
                 d="m 0.78,-2.45 c 0.6,0.46 1.1,1.14 1.51,2.05000002 C 2.6799998,0.47 2.8799999,1.29 2.8799999,2.08 V 2.9199998 C 2.8799999,3.7099998 2.6799998,4.5299997 2.29,5.4 1.88,6.31 1.38,6.99 0.78,7.45 0.75,7.47 0.72,7.48 0.71,7.48 0.62,7.48 0.57,7.43 0.57,7.3399997 c 0,-0.04 0.02,-0.08 0.05,-0.1099997 0.52,-0.4 0.94,-1.06 1.25,-1.9700002 0.2699999,-0.7899998 0.41,-1.57 0.41,-2.34 V 2.08 C 2.28,1.31 2.1399999,0.53 1.87,-0.26 1.56,-1.17 1.14,-1.8299999 0.62,-2.23 0.59,-2.27 0.57,-2.31 0.57,-2.34 c 0,-0.09 0.05,-0.14 0.14,-0.14 0.01,0 0.04,0.01 0.07,0.03 z"
                 id="path2452" />
            </g>
          </g>
        </g>
      </g>
    </g>
  </g>
</svg>
