<?xml version="1.0" encoding="UTF-8" standalone="no"?>
<!-- Created with Inkscape (http://www.inkscape.org/) -->

<svg
   width="80mm"
   height="50.000999mm"
   viewBox="0 0 79.999996 50.000997"
   version="1.1"
   id="svg1"
   inkscape:version="1.3.2 (091e20e, 2023-11-25)"
   sodipodi:docname="flatgaugefield.svg"
   inkscape:export-filename="localizedgaugefield.pdf"
   inkscape:export-xdpi="96"
   inkscape:export-ydpi="96"
   xmlns:inkscape="http://www.inkscape.org/namespaces/inkscape"
   xmlns:sodipodi="http://sodipodi.sourceforge.net/DTD/sodipodi-0.dtd"
   xmlns="http://www.w3.org/2000/svg"
   xmlns:svg="http://www.w3.org/2000/svg">
  <sodipodi:namedview
     id="namedview1"
     pagecolor="#ffffff"
     bordercolor="#000000"
     borderopacity="0.25"
     inkscape:showpageshadow="2"
     inkscape:pageopacity="0.0"
     inkscape:pagecheckerboard="0"
     inkscape:deskcolor="#d1d1d1"
     inkscape:document-units="mm"
     showgrid="true"
     inkscape:zoom="4.8142857"
     inkscape:cx="151.63205"
     inkscape:cy="97.31454"
     inkscape:window-width="2144"
     inkscape:window-height="1408"
     inkscape:window-x="400"
     inkscape:window-y="25"
     inkscape:window-maximized="0"
     inkscape:current-layer="layer1">
    <inkscape:grid
       id="grid1"
       units="px"
       originx="0"
       originy="0"
       spacingx="0.26458333"
       spacingy="0.26458334"
       empcolor="#0099e5"
       empopacity="0.30196078"
       color="#0099e5"
       opacity="0.14901961"
       empspacing="5"
       dotted="false"
       gridanglex="30"
       gridanglez="30"
       visible="true" />
  </sodipodi:namedview>
  <defs
     id="defs1">
    <marker
       style="overflow:visible"
       id="marker10"
       refX="0"
       refY="0"
       orient="auto-start-reverse"
       inkscape:stockid="Triangle arrow"
       markerWidth="1"
       markerHeight="1"
       viewBox="0 0 1 1"
       inkscape:isstock="true"
       inkscape:collect="always"
       preserveAspectRatio="xMidYMid">
      <path
         transform="scale(0.5)"
         style="fill:context-stroke;fill-rule:evenodd;stroke:context-stroke;stroke-width:1pt"
         d="M 5.77,0 -2.88,5 V -5 Z"
         id="path10" />
    </marker>
    <marker
       style="overflow:visible"
       id="marker8"
       refX="0"
       refY="0"
       orient="auto"
       inkscape:stockid="Dot"
       markerWidth="1"
       markerHeight="1"
       viewBox="0 0 1 1"
       inkscape:isstock="true"
       inkscape:collect="always"
       preserveAspectRatio="xMidYMid">
      <path
         transform="scale(0.5)"
         style="fill:context-stroke;fill-rule:evenodd;stroke:none"
         d="M 5,0 C 5,2.76 2.76,5 0,5 -2.76,5 -5,2.76 -5,0 c 0,-2.76 2.3,-5 5,-5 2.76,0 5,2.24 5,5 z"
         sodipodi:nodetypes="sssss"
         id="path8" />
    </marker>
    <marker
       style="overflow:visible"
       id="Dot"
       refX="0"
       refY="0"
       orient="auto"
       inkscape:stockid="Dot"
       markerWidth="1"
       markerHeight="1"
       viewBox="0 0 1 1"
       inkscape:isstock="true"
       inkscape:collect="always"
       preserveAspectRatio="xMidYMid">
      <path
         transform="scale(0.5)"
         style="fill:context-stroke;fill-rule:evenodd;stroke:none"
         d="M 5,0 C 5,2.76 2.76,5 0,5 -2.76,5 -5,2.76 -5,0 c 0,-2.76 2.3,-5 5,-5 2.76,0 5,2.24 5,5 z"
         sodipodi:nodetypes="sssss"
         id="path17" />
    </marker>
    <marker
       style="overflow:visible"
       id="Triangle"
       refX="0"
       refY="0"
       orient="auto-start-reverse"
       inkscape:stockid="Triangle arrow"
       markerWidth="1"
       markerHeight="1"
       viewBox="0 0 1 1"
       inkscape:isstock="true"
       inkscape:collect="always"
       preserveAspectRatio="xMidYMid">
      <path
         transform="scale(0.5)"
         style="fill:context-stroke;fill-rule:evenodd;stroke:context-stroke;stroke-width:1pt"
         d="M 5.77,0 -2.88,5 V -5 Z"
         id="path135" />
    </marker>
  </defs>
  <g
     inkscape:label="Layer 1"
     inkscape:groupmode="layer"
     id="layer1">
    <text
       xml:space="preserve"
       style="font-style:italic;font-weight:500;font-size:4.9389px;font-family:'STIX Two Text';-inkscape-font-specification:'STIX Two Text Medium Italic';fill:none;stroke:#000000;stroke-width:0.4;stroke-dasharray:none;stroke-opacity:1"
       x="37.041668"
       y="14.552084"
       id="text28"><tspan
         sodipodi:role="line"
         id="tspan28"
         style="stroke:#000000;stroke-width:0.4;stroke-opacity:1"
         x="37.041668"
         y="14.552084" /></text>
    <path
       style="fill:none;stroke:#000000;stroke-width:0.365;stroke-dasharray:none"
       d="m 8.0316701,26.709571 c 0,0 0.7420764,-4.891056 4.8834509,-9.370232 4.141375,-4.479176 18.191087,-7.391948 18.191087,-7.391948"
       id="path4" />
    <g
       inkscape:label=""
       transform="translate(33.483779,9.4339799)"
       id="g4">
      <g
         id="g3894"
         transform="matrix(0.352778,0,0,0.352778,-105.03,-1.44568)">
        <g
           transform="translate(291.206,8.196)"
           id="g4480">
          <g
             class="typst-text"
             transform="scale(1,-1)"
             id="g2204">
            <g
               id="g1781">
              <path
                 d="M 7.1280003,0.192 C 7.1280003,0.06 7.2000003,0 7.356,0 L 8.832,0.036 C 9.108,0.048 10.08,0 10.308001,0 10.488,0 10.584,0.096 10.584,0.288 c 0,0.12 -0.12,0.18 -0.372,0.18 -0.492,0 -0.7319995,0.048 -0.7319995,0.156 0,0.036 0.024,0.12 0.059999,0.27600004 L 11.124001,7.224 C 11.184,7.476 11.304,7.632 11.46,7.692 c 0.072,0.024 0.288,0.036 0.636,0.036 0.3,0 0.432,0.012 0.432,0.288 0,0.12 -0.12,0.18 -0.372,0.18 h -1.572 c -0.348,0 -0.348,-0.024 -0.504,-0.2519998 L 5.808,1.296 4.896,7.8840003 C 4.848,8.184 4.824,8.196 4.476,8.196 H 2.844 C 2.58,8.196 2.448,8.184 2.448,7.92 c 0,-0.132 0.132,-0.192 0.384,-0.192 0.24,0 0.7320001,0.036 0.7320001,-0.156 0,-0.024 -0.012,-0.096 -0.048,-0.216 L 2.004,1.32 C 1.896,0.864 1.62,0.588 1.2,0.504 0.90000004,0.468 0.504,0.51600003 0.504,0.192 0.504,0.06 0.576,0 0.72,0 0.936,0 1.692,0.036 1.908,0.036 2.136,0.036 2.904,0 3.132,0 c 0.18,0 0.2640001,0.096 0.2640001,0.288 0,0.108 -0.084,0.168 -0.2640001,0.18 -0.504,0 -0.756,0.156 -0.756,0.468 0,0.048 0.012,0.132 0.048,0.264 L 3.984,7.452 4.98,0.312 C 5.0160003,0.108 5.088,0 5.208,0 5.304,0 5.4,0.084 5.508,0.24000001 L 10.176,7.524 8.544,0.984 C 8.472,0.72 8.352,0.564 8.172,0.504 8.1,0.48000002 7.872,0.468 7.5,0.468 7.248,0.468 7.1280003,0.444 7.1280003,0.192 Z"
                 id="path5012" />
            </g>
          </g>
        </g>
      </g>
    </g>
    <g
       inkscape:label=""
       transform="translate(22.957829,22.476881)"
       id="g5">
      <g
         id="g954"
         transform="matrix(0.352778,0,0,0.352778,-105.026,-1.44568)">
        <g
           transform="translate(292.646,8.196)"
           id="g1203">
          <g
             class="typst-text"
             transform="scale(1,-1)"
             id="g7256">
            <g
               id="g3687">
              <path
                 d="M 6.804,8.196 H 2.82 c -0.276,0 -0.408,-0.012 -0.408,-0.276 0,-0.132 0.132,-0.192 0.396,-0.192 0.24,0 0.72,0.036 0.72,-0.156 C 3.528,7.548 3.516,7.476 3.48,7.356 L 1.896,0.984 C 1.836,0.72 1.716,0.564 1.536,0.504 1.452,0.48000002 1.2360001,0.468 0.864,0.468 0.6,0.468 0.48000002,0.444 0.48000002,0.192 0.48000002,0.06 0.612,0 0.864,0 H 4.788 C 5.604,0 6.384,0.24000001 7.14,0.732 8.424,1.5600001 9.648,3.18 9.648,5.1480002 9.648,6.9240003 8.556,8.196 6.804,8.196 Z M 8.52,5.592 C 8.52,4.236 7.908,2.592 7.284,1.788 6.6,0.912 5.7000003,0.468 4.572,0.468 H 3.24 c -0.132,0 -0.216,0 -0.264,0.012 -0.072,0 -0.108,0.024 -0.108,0.06 0,0.024 0.024,0.108 0.06,0.264 L 4.548,7.32 C 4.656,7.716 4.644,7.728 5.1480002,7.728 H 6.42 c 1.344,0 2.1,-0.792 2.1,-2.136 z"
                 id="path4739" />
            </g>
          </g>
        </g>
      </g>
    </g>
    <path
       style="fill:none;stroke:#ff0000;stroke-width:0.165;stroke-dasharray:none;stroke-opacity:1;marker-start:url(#Dot);marker-mid:url(#Triangle);marker-end:url(#marker8)"
       d="m 22.585109,17.659514 c 0,0 -0.540712,-2.386121 -1.149351,-3.496744 -0.608639,-1.110623 -2.502484,-3.166996 -2.502484,-3.166996"
       id="path5"
       sodipodi:nodetypes="czc" />
    <g
       inkscape:label=""
       transform="translate(24.396996,15.426271)"
       id="g8"
       style="fill:#ff0000;fill-opacity:1">
      <g
         id="g6241"
         transform="matrix(0.352778,0,0,0.352778,-105.047,-1.53882)"
         style="fill:#ff0000;fill-opacity:1">
        <g
           transform="translate(292.91,8.46)"
           id="g7662"
           style="fill:#ff0000;fill-opacity:1">
          <g
             class="typst-text"
             transform="scale(1,-1)"
             id="g4701"
             style="fill:#ff0000;fill-opacity:1">
            <g
               id="g4494"
               style="fill:#ff0000;fill-opacity:1">
              <path
                 d="m 1.776,2.616 c 0,1.536 0.672,3.096 1.428,3.96 0.612,0.708 1.668,1.416 2.856,1.416 1.248,0 1.86,-0.948 1.86,-2.244 0,-0.108 -0.036,-0.492 -0.036,-0.5999998 C 7.8840003,5.04 7.956,4.98 8.112,4.98 8.172,4.98 8.22,4.992 8.2560005,5.004 8.316,5.088 8.352,5.172 8.376,5.256 L 9.12,8.292 C 9.12,8.4 9.06,8.46 8.940001,8.46 8.892,8.46 8.82,8.412 8.724,8.304 L 7.9440002,7.428 C 7.476,8.112 6.816,8.46 5.964,8.46 5.304,8.46 4.656,8.304 3.996,8.004 2.664,7.38 1.692,6.396 1.068,5.052 0.756,4.392 0.6,3.72 0.6,3.036 c 0,-0.96 0.30000004,-1.74 0.912,-2.364 0.612,-0.624 1.392,-0.936 2.352,-0.936 0.9480003,0 1.812,0.348 2.592,1.032 0.324,0.276 0.6,0.612 0.828,0.984 0.3240003,0.54 0.492,0.912 0.492,1.14 C 7.776,3 7.716,3.06 7.584,3.06 7.476,3.06 7.416,3.012 7.392,2.904 7.14,2.124 6.744,1.5 6.204,1.056 5.52,0.492 4.8,0.204 4.056,0.204 c -1.44,0 -2.28,0.972 -2.28,2.412 z"
                 id="path760"
                 style="fill:#ff0000;fill-opacity:1" />
            </g>
          </g>
        </g>
      </g>
    </g>
    <path
       style="fill:#ff0000;fill-opacity:1;stroke:#000000;stroke-width:0.165;stroke-dasharray:none;stroke-opacity:1;marker-end:url(#marker10)"
       d="M 12.915121,17.339339 11.04655,15.426268"
       id="path9" />
  </g>
</svg>
