<?xml version="1.0" encoding="UTF-8" standalone="no"?>
<!-- Created with Inkscape (http://www.inkscape.org/) -->

<svg
   width="80mm"
   height="50.000999mm"
   viewBox="0 0 79.999996 50.000997"
   version="1.1"
   id="svg1"
   inkscape:version="1.3.2 (091e20e, 2023-11-25)"
   sodipodi:docname="groupmul.svg"
   inkscape:export-filename="groupmul.pdf"
   inkscape:export-xdpi="96"
   inkscape:export-ydpi="96"
   xmlns:inkscape="http://www.inkscape.org/namespaces/inkscape"
   xmlns:sodipodi="http://sodipodi.sourceforge.net/DTD/sodipodi-0.dtd"
   xmlns="http://www.w3.org/2000/svg"
   xmlns:svg="http://www.w3.org/2000/svg">
  <sodipodi:namedview
     id="namedview1"
     pagecolor="#ffffff"
     bordercolor="#000000"
     borderopacity="0.25"
     inkscape:showpageshadow="2"
     inkscape:pageopacity="0.0"
     inkscape:pagecheckerboard="0"
     inkscape:deskcolor="#d1d1d1"
     inkscape:document-units="mm"
     showgrid="true"
     inkscape:zoom="4.710799"
     inkscape:cx="128.6406"
     inkscape:cy="118.98194"
     inkscape:window-width="2144"
     inkscape:window-height="1408"
     inkscape:window-x="400"
     inkscape:window-y="25"
     inkscape:window-maximized="0"
     inkscape:current-layer="svg1">
    <inkscape:grid
       id="grid1"
       units="px"
       originx="0"
       originy="0"
       spacingx="0.26458333"
       spacingy="0.26458334"
       empcolor="#0099e5"
       empopacity="0.30196078"
       color="#0099e5"
       opacity="0.14901961"
       empspacing="5"
       dotted="false"
       gridanglex="30"
       gridanglez="30"
       visible="true" />
  </sodipodi:namedview>
  <defs
     id="defs1">
    <marker
       style="overflow:visible"
       id="DartArrow"
       refX="0"
       refY="0"
       orient="auto-start-reverse"
       inkscape:stockid="Dart arrow"
       markerWidth="1"
       markerHeight="1"
       viewBox="0 0 1 1"
       inkscape:isstock="true"
       inkscape:collect="always"
       preserveAspectRatio="xMidYMid">
      <path
         style="fill:context-stroke;fill-rule:evenodd;stroke:none"
         d="M 0,0 5,-5 -12.5,0 5,5 Z"
         transform="scale(-0.5)"
         id="path6" />
    </marker>
    <clipPath
       id="clipPath4411">
      <path
         clip-rule="nonzero"
         d="M 0,0 H 11.699219 V 10.550781 H 0 Z m 0,0"
         id="path8030" />
    </clipPath>
    <clipPath
       id="clipPath903">
      <path
         clip-rule="nonzero"
         d="M 0,0 H 8.773438 V 7.914063 H 0 Z m 0,0"
         id="path9923" />
    </clipPath>
    <clipPath
       id="clipPath903-2">
      <path
         clip-rule="nonzero"
         d="M 0,0 H 8.773438 V 7.914063 H 0 Z m 0,0"
         id="path9923-0" />
    </clipPath>
    <marker
       style="overflow:visible"
       id="DartArrow-3"
       refX="0"
       refY="0"
       orient="auto-start-reverse"
       inkscape:stockid="Dart arrow"
       markerWidth="1"
       markerHeight="1"
       viewBox="0 0 1 1"
       inkscape:isstock="true"
       inkscape:collect="always"
       preserveAspectRatio="xMidYMid">
      <path
         style="fill:context-stroke;fill-rule:evenodd;stroke:none"
         d="M 0,0 5,-5 -12.5,0 5,5 Z"
         transform="scale(-0.5)"
         id="path6-9" />
    </marker>
    <marker
       style="overflow:visible"
       id="DartArrow-3-9"
       refX="0"
       refY="0"
       orient="auto-start-reverse"
       inkscape:stockid="Dart arrow"
       markerWidth="1"
       markerHeight="1"
       viewBox="0 0 1 1"
       inkscape:isstock="true"
       inkscape:collect="always"
       preserveAspectRatio="xMidYMid">
      <path
         style="fill:context-stroke;fill-rule:evenodd;stroke:none"
         d="M 0,0 5,-5 -12.5,0 5,5 Z"
         transform="scale(-0.5)"
         id="path6-9-4" />
    </marker>
  </defs>
  <g
     inkscape:label="Layer 1"
     inkscape:groupmode="layer"
     id="layer1">
    <text
       xml:space="preserve"
       style="font-style:italic;font-weight:500;font-size:4.9389px;font-family:'STIX Two Text';-inkscape-font-specification:'STIX Two Text Medium Italic';fill:none;stroke:#000000;stroke-width:0.4;stroke-dasharray:none;stroke-opacity:1"
       x="37.041668"
       y="14.552084"
       id="text28"><tspan
         sodipodi:role="line"
         id="tspan28"
         style="stroke:#000000;stroke-width:0.4;stroke-opacity:1"
         x="37.041668"
         y="14.552084" /></text>
    <text
       xml:space="preserve"
       style="font-style:italic;font-weight:500;font-size:4.9389px;font-family:'STIX Two Text';-inkscape-font-specification:'STIX Two Text Medium Italic';fill:#000000;fill-opacity:1;stroke:none;stroke-width:0.4;stroke-dasharray:none;stroke-opacity:1"
       x="37.76062"
       y="17.89995"
       id="text29"><tspan
         sodipodi:role="line"
         id="tspan29"
         style="fill:#000000;fill-opacity:1;stroke:none;stroke-width:0.4"
         x="37.76062"
         y="17.89995">=</tspan></text>
    <path
       style="fill:none;stroke:#000000;stroke-width:0.264583px;stroke-linecap:butt;stroke-linejoin:miter;stroke-opacity:1"
       d="M 21.166666,18.520834 21.03162,8.1302577"
       id="path225"
       sodipodi:nodetypes="cc" />
    <path
       style="fill:none;stroke:#000000;stroke-width:0.152892;stroke-linecap:butt;stroke-linejoin:miter;stroke-dasharray:none;stroke-opacity:1;marker-end:url(#DartArrow)"
       d="M 21.03162,14.552084 H 19.406284"
       id="path1"
       sodipodi:nodetypes="cc" />
    <path
       style="fill:none;stroke:#000000;stroke-width:0.264583px;stroke-linecap:butt;stroke-linejoin:miter;stroke-opacity:1"
       d="M 30.494607,18.424456 30.359561,8.0338795"
       id="path225-5"
       sodipodi:nodetypes="cc" />
    <path
       style="fill:none;stroke:#000000;stroke-width:0.152892;stroke-linecap:butt;stroke-linejoin:miter;stroke-dasharray:none;stroke-opacity:1;marker-end:url(#DartArrow-3)"
       d="M 30.359561,14.455706 H 28.734225"
       id="path1-2"
       sodipodi:nodetypes="cc" />
    <path
       style="fill:none;stroke:#000000;stroke-width:0.264583px;stroke-linecap:butt;stroke-linejoin:miter;stroke-opacity:1"
       d="M 48.815638,18.329796 48.680592,7.9392198"
       id="path225-5-3"
       sodipodi:nodetypes="cc" />
    <path
       style="fill:none;stroke:#000000;stroke-width:0.152892;stroke-linecap:butt;stroke-linejoin:miter;stroke-dasharray:none;stroke-opacity:1;marker-end:url(#DartArrow-3-9)"
       d="M 48.680592,14.361046 H 47.055256"
       id="path1-2-7"
       sodipodi:nodetypes="cc" />
  </g>
  <g
     inkscape:label=""
     transform="translate(21.196859,22.275377)"
     id="g2">
    <g
       id="g7842"
       transform="matrix(0.352778,0,0,0.352778,-104.982,-2.27076)">
      <g
         transform="translate(290.835,8.196)"
         id="g4215">
        <g
           class="typst-text"
           transform="scale(1,-1)"
           id="g9746">
          <g
             id="g4142">
            <path
               d="M 6.48,8.196 C 6.3,8.196 6.216,8.1 6.216,7.908 6.216,7.8 6.3,7.7400002 6.468,7.728 6.984,7.728 7.236,7.572 7.236,7.26 7.236,7.188 7.224,7.104 7.2,7.02 L 6.132,2.784 C 5.952,2.1 5.604,1.512 5.088,1.008 4.524,0.468 3.9,0.204 3.228,0.204 2.34,0.204 1.824,0.804 1.824,1.692 L 1.836,1.8000001 C 1.836,2.028 1.872,2.292 1.956,2.604 l 1.152,4.62 c 0.06,0.252 0.168,0.408 0.324,0.468 0.072,0.024 0.276,0.036 0.624,0.036 0.312,0 0.444,0 0.444,0.288 0,0.12 -0.072,0.18 -0.204,0.18 0,0 -1.524,-0.036 -1.524,-0.036 0,0 -1.524,0.036 -1.524,0.036 C 1.056,8.196 0.972,8.088 0.972,7.908 0.972,7.824 1.008,7.764 1.068,7.752 1.188,7.74 1.284,7.728 1.344,7.728 1.716,7.716 1.932,7.692 1.992,7.68 2.052,7.668 2.076,7.632 2.076,7.572 2.076,7.548 2.064,7.464 2.028,7.3320003 L 0.888,2.76 C 0.828,2.532 0.804,2.304 0.804,2.0640001 0.804,0.684 1.8000001,-0.264 3.18,-0.264 c 0.78,0 1.5,0.3 2.16,0.912 0.636,0.576 1.044,1.248 1.236,2.028 L 7.632,6.888 C 7.788,7.5 8.124,7.716 8.868,7.728 9.036,7.74 9.12,7.836 9.12,8.016 V 8.064 C 9.084,8.148 9.024,8.196 8.916,8.196 8.688,8.196 7.932,8.16 7.704,8.16 7.476,8.16 6.708,8.196 6.48,8.196 Z"
               id="path98" />
          </g>
        </g>
      </g>
      <g
         transform="translate(299.031,11.16)"
         id="g7529">
        <g
           class="typst-text"
           transform="scale(1,-1)"
           id="g1586">
          <g
             id="g6835">
            <path
               d="m 2.1,-0.0168 c 0.3276,0 0.6552,0.12599999 0.9744,0.3864 -0.2352002,-0.9996 -0.3948,-1.7807999 -1.512,-1.7807999 -0.21,0 -0.3948001,0.0084 -0.546,0.0336 0.1344,0.0924 0.2015999,0.2268 0.2015999,0.4032 0,0.22680004 -0.1175999,0.33600004 -0.3527999,0.33600004 -0.2856,0 -0.50400002,-0.25200004 -0.50400002,-0.53760004 0,-0.252 0.15120002,-0.4116 0.45359998,-0.4704 0.22680004,-0.042 0.47880004,-0.0672 0.75600004,-0.0672 0.4536,0 0.8568,0.084 1.2095998,0.2519999 C 3.2087998,-1.2515999 3.4692,-0.9492 3.57,-0.55439997 L 4.4688,3.066 c 0.0252,0.0924 0.0336,0.1511998 0.0336,0.1848 0,0.1931998 -0.1008,0.2939998 -0.3108,0.2939998 -0.1932,0 -0.3192002,-0.0924 -0.3948,-0.2688 -0.2016002,0.2856002 -0.4788002,0.4284 -0.84,0.4284 C 2.3939998,3.7043998 1.8984,3.4608 1.4616,2.9736 1.0248,2.4864 0.80639994,1.9488 0.80639994,1.3692 0.80639994,0.588 1.3188,-0.0168 2.1,-0.0168 Z M 3.3683999,3.2508 C 3.5616,3.0744 3.6539998,2.9064 3.6623998,2.7384 l -0.3948,-1.6128 C 3.2424,1.0331999 3.192,0.94079995 3.0995998,0.83159995 2.7888,0.46199998 2.4696,0.27719998 2.1252,0.27719998 c -0.3948,0 -0.588,0.25199998 -0.588,0.75599992 0,0.2016001 0.0504,0.4872 0.1428,0.8484 C 1.7723999,2.2428 1.8648,2.5031998 1.9655999,2.6711998 2.2596,3.1583998 2.5872,3.402 2.9568,3.402 c 0.1596,0 0.3023999,-0.0504 0.4115999,-0.1512 z"
               id="path5131" />
          </g>
        </g>
      </g>
    </g>
  </g>
  <g
     inkscape:label=""
     transform="translate(31.538329,21.814371)"
     id="g3">
    <g
       id="g8632"
       transform="matrix(0.352778,0,0,0.352778,-2.50613,-1.98332)">
      <g
         transform="translate(0,8.196)"
         id="g5260">
        <g
           class="typst-text"
           transform="scale(1,-1)"
           id="g4343">
          <g
             id="g3697">
            <path
               d="M 6.48,8.196 C 6.3,8.196 6.216,8.1 6.216,7.908 6.216,7.8 6.3,7.7400002 6.468,7.728 c 0.516,0 0.768,-0.156 0.768,-0.468 0,-0.072 -0.012,-0.156 -0.036,-0.24 L 6.132,2.784 C 5.952,2.1 5.604,1.512 5.088,1.008 4.524,0.468 3.9,0.204 3.228,0.204 2.34,0.204 1.824,0.804 1.824,1.692 L 1.836,1.8000001 C 1.836,2.028 1.872,2.292 1.956,2.604 l 1.152,4.62 c 0.06,0.252 0.168,0.408 0.324,0.468 0.072,0.024 0.276,0.036 0.624,0.036 0.312,0 0.444,0 0.444,0.288 0,0.12 -0.072,0.18 -0.204,0.18 0,0 -1.524,-0.036 -1.524,-0.036 0,0 -1.524,0.036 -1.524,0.036 -0.192,0 -0.276,-0.108 -0.276,-0.288 0,-0.084 0.036,-0.144 0.096,-0.156 0.12,-0.012 0.216,-0.024 0.276,-0.024 0.372,-0.012 0.588,-0.036 0.648,-0.048 C 2.052,7.668 2.076,7.632 2.076,7.572 c 0,-0.024 -0.012,-0.108 -0.048,-0.2399997 L 0.888,2.76 C 0.828,2.532 0.804,2.304 0.804,2.0640001 0.804,0.684 1.8000001,-0.264 3.18,-0.264 c 0.78,0 1.5,0.3 2.16,0.912 0.636,0.576 1.044,1.248 1.236,2.028 l 1.056,4.212 c 0.156,0.612 0.492,0.828 1.236,0.84 0.168,0.012 0.252,0.108 0.252,0.288 V 8.064 C 9.084,8.148 9.024,8.196 8.916,8.196 8.688,8.196 7.932,8.16 7.704,8.16 7.476,8.16 6.708,8.196 6.48,8.196 Z"
               id="path40" />
          </g>
        </g>
      </g>
      <g
         transform="translate(8.196,11.16)"
         id="g7116">
        <g
           class="typst-text"
           transform="scale(1,-1)"
           id="g9730">
          <g
             id="g8412">
            <path
               d="M 1.8731999,5.2836 C 1.8731999,5.25 1.8648,5.1912 1.8396,5.1071997 1.4363999,3.5028 1.05,1.8815999 0.63839996,0.28559998 0.63,0.252 0.63,0.2268 0.63,0.21839999 0.63,0.0168 0.7308,-0.084 0.94079995,-0.084 1.1927999,-0.084 1.2936,0.0756 1.3692,0.31919998 L 1.6464,1.4195999 c 0.0924,0.4032 0.1847999,0.8568 0.378,1.1423999 0.378,0.5796002 0.8063998,0.8652 1.2935998,0.8652 0.3024002,0 0.4536,-0.1847998 0.4536,-0.546 C 3.7715998,2.5535998 3.612,1.974 3.2928,1.1256 3.2087998,0.89879996 3.1667998,0.74759996 3.1667998,0.66359997 3.1667998,0.21 3.5279999,-0.084 3.9815998,-0.084 4.3764,-0.084 4.6956,0.11759999 4.9224,0.52919996 5.1155996,0.87359995 5.2079997,1.1004 5.2079997,1.2179999 c 0,0.0924 -0.0588,0.1428 -0.1679997,0.1428 C 4.9811997,1.3524 4.9224,1.3104 4.8636,1.2263999 4.8552,1.2179999 4.8552,1.2012 4.8552,1.1927999 4.6619997,0.546 4.3848,0.21839999 4.0067997,0.21839999 c -0.1175997,0 -0.1763999,0.084 -0.1763999,0.25199999 0,0.12599998 0.0672,0.34439998 0.1931998,0.66360002 0.2940004,0.7475999 0.4368,1.2852 0.4368,1.6128 0,0.6552 -0.3695996,0.9828 -1.1087996,0.9828 -0.4788001,0 -0.9072002,-0.2016001 -1.2852002,-0.6048 l 0.5964,2.4107997 c 0.0084,0.0168 0.0168,0.0672 0.0336,0.1427999 0,0.1008 -0.0504,0.1512004 -0.1596,0.1512004 l -1.0668001,-0.084 C 1.3271999,5.7372 1.26,5.6615996 1.26,5.5188 c 0,-0.0924 0.084,-0.1428 0.2436,-0.1428 0.1511999,0 0.3695999,0.0084 0.3695999,-0.0924 z"
               id="path6119" />
          </g>
        </g>
      </g>
    </g>
  </g>
  <g
     inkscape:label=""
     transform="translate(49.93809,22.275377)"
     id="g4">
    <g
       id="g8849"
       transform="matrix(0.352778,0,0,0.352778,-3.34179,-2.27076)">
      <g
         transform="translate(0,8.196)"
         id="g7019">
        <g
           class="typst-text"
           transform="scale(1,-1)"
           id="g2930">
          <g
             id="g727">
            <path
               d="M 6.48,8.196 C 6.3,8.196 6.216,8.1 6.216,7.908 6.216,7.8 6.3,7.7400002 6.468,7.728 6.984,7.728 7.236,7.572 7.236,7.26 7.236,7.188 7.224,7.104 7.2,7.02 L 6.132,2.784 C 5.952,2.1 5.604,1.512 5.088,1.008 4.524,0.468 3.9,0.204 3.228,0.204 2.34,0.204 1.824,0.804 1.824,1.692 L 1.836,1.8000001 C 1.836,2.028 1.872,2.292 1.956,2.604 l 1.152,4.62 c 0.06,0.252 0.168,0.408 0.324,0.468 0.072,0.024 0.276,0.036 0.624,0.036 0.312,0 0.444,0 0.444,0.288 0,0.12 -0.072,0.18 -0.204,0.18 0,0 -1.524,-0.036 -1.524,-0.036 0,0 -1.524,0.036 -1.524,0.036 C 1.056,8.196 0.972,8.088 0.972,7.908 0.972,7.824 1.008,7.764 1.068,7.752 1.188,7.74 1.284,7.728 1.344,7.728 1.716,7.716 1.932,7.692 1.992,7.68 2.052,7.668 2.076,7.632 2.076,7.572 2.076,7.548 2.064,7.464 2.028,7.3320003 L 0.888,2.76 C 0.828,2.532 0.804,2.304 0.804,2.0640001 0.804,0.684 1.8000001,-0.264 3.18,-0.264 c 0.78,0 1.5,0.3 2.16,0.912 0.636,0.576 1.044,1.248 1.236,2.028 L 7.632,6.888 C 7.788,7.5 8.124,7.716 8.868,7.728 9.036,7.74 9.12,7.836 9.12,8.016 V 8.064 C 9.084,8.148 9.024,8.196 8.916,8.196 8.688,8.196 7.932,8.16 7.704,8.16 7.476,8.16 6.708,8.196 6.48,8.196 Z"
               id="path5315" />
          </g>
        </g>
      </g>
      <g
         transform="translate(8.196,11.16)"
         id="g5276">
        <g
           class="typst-text"
           transform="scale(1,-1)"
           id="g1083">
          <g
             id="g4221">
            <path
               d="m 2.1,-0.0168 c 0.3276,0 0.6552,0.12599999 0.9744,0.3864 -0.2352002,-0.9996 -0.3948,-1.7807999 -1.512,-1.7807999 -0.21,0 -0.3948001,0.0084 -0.546,0.0336 0.1344,0.0924 0.2015999,0.2268 0.2015999,0.4032 0,0.22680004 -0.1175999,0.33600004 -0.3527999,0.33600004 -0.2856,0 -0.50400002,-0.25200004 -0.50400002,-0.53760004 0,-0.252 0.15120002,-0.4116 0.45359998,-0.4704 0.22680004,-0.042 0.47880004,-0.0672 0.75600004,-0.0672 0.4536,0 0.8568,0.084 1.2095998,0.2519999 C 3.2087998,-1.2515999 3.4692,-0.9492 3.57,-0.55439997 L 4.4688,3.066 c 0.0252,0.0924 0.0336,0.1511998 0.0336,0.1848 0,0.1931998 -0.1008,0.2939998 -0.3108,0.2939998 -0.1932,0 -0.3192002,-0.0924 -0.3948,-0.2688 -0.2016002,0.2856002 -0.4788002,0.4284 -0.84,0.4284 C 2.3939998,3.7043998 1.8984,3.4608 1.4616,2.9736 1.0248,2.4864 0.80639994,1.9488 0.80639994,1.3692 0.80639994,0.588 1.3188,-0.0168 2.1,-0.0168 Z M 3.3683999,3.2508 C 3.5616,3.0744 3.6539998,2.9064 3.6623998,2.7384 l -0.3948,-1.6128 C 3.2424,1.0331999 3.192,0.94079995 3.0995998,0.83159995 2.7888,0.46199998 2.4696,0.27719998 2.1252,0.27719998 c -0.3948,0 -0.588,0.25199998 -0.588,0.75599992 0,0.2016001 0.0504,0.4872 0.1428,0.8484 C 1.7723999,2.2428 1.8648,2.5031998 1.9655999,2.6711998 2.2596,3.1583998 2.5872,3.402 2.9568,3.402 c 0.1596,0 0.3023999,-0.0504 0.4115999,-0.1512 z"
               id="path3170" />
          </g>
        </g>
      </g>
      <g
         transform="translate(12.9336,11.16)"
         id="g5648">
        <g
           class="typst-text"
           transform="scale(1,-1)"
           id="g2368">
          <g
             id="g2766">
            <path
               d="M 1.8731999,5.2836 C 1.8731999,5.25 1.8648,5.1912 1.8396,5.1071997 1.4363999,3.5028 1.05,1.8815999 0.63839996,0.28559998 0.63,0.252 0.63,0.2268 0.63,0.21839999 0.63,0.0168 0.7308,-0.084 0.94079995,-0.084 1.1927999,-0.084 1.2936,0.0756 1.3692,0.31919998 L 1.6464,1.4195999 c 0.0924,0.4032 0.1847999,0.8568 0.378,1.1423999 0.378,0.5796002 0.8063998,0.8652 1.2935998,0.8652 0.3024002,0 0.4536,-0.1847998 0.4536,-0.546 C 3.7715998,2.5535998 3.612,1.974 3.2928,1.1256 3.2087998,0.89879996 3.1667998,0.74759996 3.1667998,0.66359997 3.1667998,0.21 3.5279999,-0.084 3.9815998,-0.084 4.3764,-0.084 4.6956,0.11759999 4.9224,0.52919996 5.1155996,0.87359995 5.2079997,1.1004 5.2079997,1.2179999 c 0,0.0924 -0.0588,0.1428 -0.1679997,0.1428 C 4.9811997,1.3524 4.9224,1.3104 4.8636,1.2263999 4.8552,1.2179999 4.8552,1.2012 4.8552,1.1927999 4.6619997,0.546 4.3848,0.21839999 4.0067997,0.21839999 c -0.1175997,0 -0.1763999,0.084 -0.1763999,0.25199999 0,0.12599998 0.0672,0.34439998 0.1931998,0.66360002 0.2940004,0.7475999 0.4368,1.2852 0.4368,1.6128 0,0.6552 -0.3695996,0.9828 -1.1087996,0.9828 -0.4788001,0 -0.9072002,-0.2016001 -1.2852002,-0.6048 l 0.5964,2.4107997 c 0.0084,0.0168 0.0168,0.0672 0.0336,0.1427999 0,0.1008 -0.0504,0.1512004 -0.1596,0.1512004 L 1.4699997,5.7456 C 1.3271999,5.7372 1.26,5.6615996 1.26,5.5188 1.26,5.4264 1.344,5.376 1.5036,5.376 c 0.1511999,0 0.3695999,0.0084 0.3695999,-0.0924 z"
               id="path9690" />
          </g>
        </g>
      </g>
    </g>
  </g>
</svg>
