<?xml version="1.0" encoding="UTF-8" standalone="no"?>
<!-- Created with Inkscape (http://www.inkscape.org/) -->

<svg
   width="80mm"
   height="50.000999mm"
   viewBox="0 0 79.999996 50.000997"
   version="1.1"
   id="svg1"
   inkscape:version="1.3.2 (091e20e, 2023-11-25)"
   sodipodi:docname="groupidentity.svg"
   inkscape:export-filename="groupmul.pdf"
   inkscape:export-xdpi="96"
   inkscape:export-ydpi="96"
   xmlns:inkscape="http://www.inkscape.org/namespaces/inkscape"
   xmlns:sodipodi="http://sodipodi.sourceforge.net/DTD/sodipodi-0.dtd"
   xmlns="http://www.w3.org/2000/svg"
   xmlns:svg="http://www.w3.org/2000/svg">
  <sodipodi:namedview
     id="namedview1"
     pagecolor="#ffffff"
     bordercolor="#000000"
     borderopacity="0.25"
     inkscape:showpageshadow="2"
     inkscape:pageopacity="0.0"
     inkscape:pagecheckerboard="0"
     inkscape:deskcolor="#d1d1d1"
     inkscape:document-units="mm"
     showgrid="true"
     inkscape:zoom="4.710799"
     inkscape:cx="125.24415"
     inkscape:cy="118.13283"
     inkscape:window-width="2144"
     inkscape:window-height="1408"
     inkscape:window-x="400"
     inkscape:window-y="25"
     inkscape:window-maximized="0"
     inkscape:current-layer="svg1">
    <inkscape:grid
       id="grid1"
       units="px"
       originx="0"
       originy="0"
       spacingx="0.26458333"
       spacingy="0.26458334"
       empcolor="#0099e5"
       empopacity="0.30196078"
       color="#0099e5"
       opacity="0.14901961"
       empspacing="5"
       dotted="false"
       gridanglex="30"
       gridanglez="30"
       visible="true" />
  </sodipodi:namedview>
  <defs
     id="defs1">
    <marker
       style="overflow:visible"
       id="DartArrow"
       refX="0"
       refY="0"
       orient="auto-start-reverse"
       inkscape:stockid="Dart arrow"
       markerWidth="1"
       markerHeight="1"
       viewBox="0 0 1 1"
       inkscape:isstock="true"
       inkscape:collect="always"
       preserveAspectRatio="xMidYMid">
      <path
         style="fill:context-stroke;fill-rule:evenodd;stroke:none"
         d="M 0,0 5,-5 -12.5,0 5,5 Z"
         transform="scale(-0.5)"
         id="path6" />
    </marker>
    <clipPath
       id="clipPath4411">
      <path
         clip-rule="nonzero"
         d="M 0,0 H 11.699219 V 10.550781 H 0 Z m 0,0"
         id="path8030" />
    </clipPath>
    <clipPath
       id="clipPath903">
      <path
         clip-rule="nonzero"
         d="M 0,0 H 8.773438 V 7.914063 H 0 Z m 0,0"
         id="path9923" />
    </clipPath>
    <clipPath
       id="clipPath903-2">
      <path
         clip-rule="nonzero"
         d="M 0,0 H 8.773438 V 7.914063 H 0 Z m 0,0"
         id="path9923-0" />
    </clipPath>
  </defs>
  <g
     inkscape:label="Layer 1"
     inkscape:groupmode="layer"
     id="layer1">
    <text
       xml:space="preserve"
       style="font-style:italic;font-weight:500;font-size:4.9389px;font-family:'STIX Two Text';-inkscape-font-specification:'STIX Two Text Medium Italic';fill:none;stroke:#000000;stroke-width:0.4;stroke-dasharray:none;stroke-opacity:1"
       x="37.041668"
       y="14.552084"
       id="text28"><tspan
         sodipodi:role="line"
         id="tspan28"
         style="stroke:#000000;stroke-width:0.4;stroke-opacity:1"
         x="37.041668"
         y="14.552084" /></text>
    <text
       xml:space="preserve"
       style="font-style:italic;font-weight:500;font-size:4.9389px;font-family:'STIX Two Text';-inkscape-font-specification:'STIX Two Text Medium Italic';fill:#000000;fill-opacity:1;stroke:none;stroke-width:0.4;stroke-dasharray:none;stroke-opacity:1"
       x="37.76062"
       y="17.89995"
       id="text29"><tspan
         sodipodi:role="line"
         id="tspan29"
         style="fill:#000000;fill-opacity:1;stroke:none;stroke-width:0.4"
         x="37.76062"
         y="17.89995">=</tspan></text>
    <path
       style="fill:none;stroke:#000000;stroke-width:0.264583px;stroke-linecap:butt;stroke-linejoin:miter;stroke-opacity:1"
       d="M 29.66085,18.470034 29.525804,8.0794574"
       id="path225"
       sodipodi:nodetypes="cc" />
    <path
       style="fill:none;stroke:#000000;stroke-width:0.152892;stroke-linecap:butt;stroke-linejoin:miter;stroke-dasharray:none;stroke-opacity:1;marker-end:url(#DartArrow)"
       d="M 29.525804,14.501284 H 27.900468"
       id="path1"
       sodipodi:nodetypes="cc" />
  </g>
  <g
     inkscape:label=""
     transform="translate(30.175301,21.397384)"
     id="g1">
    <g
       id="g8026"
       transform="matrix(0.352778,0,0,0.352778,-104.881,-1.9685)">
      <g
         transform="translate(290.814,8.196)"
         id="g9897">
        <g
           class="typst-text"
           transform="scale(1,-1)"
           id="g5270">
          <g
             id="g7040">
            <path
               d="M 6.48,8.196 C 6.3,8.196 6.216,8.1 6.216,7.908 6.216,7.8 6.3,7.7400002 6.468,7.728 c 0.516,0 0.768,-0.156 0.768,-0.468 0,-0.072 -0.012,-0.156 -0.036,-0.24 L 6.132,2.784 C 5.952,2.1 5.604,1.512 5.088,1.008 4.524,0.468 3.9,0.204 3.228,0.204 2.34,0.204 1.824,0.804 1.824,1.692 L 1.836,1.8000001 C 1.836,2.028 1.872,2.292 1.956,2.604 l 1.152,4.62 c 0.06,0.252 0.168,0.408 0.324,0.468 0.072,0.024 0.276,0.036 0.624,0.036 0.312,0 0.444,0 0.444,0.288 0,0.12 -0.072,0.18 -0.204,0.18 0,0 -1.524,-0.036 -1.524,-0.036 0,0 -1.524,0.036 -1.524,0.036 -0.192,0 -0.276,-0.108 -0.276,-0.288 0,-0.084 0.036,-0.144 0.096,-0.156 0.12,-0.012 0.216,-0.024 0.276,-0.024 0.372,-0.012 0.588,-0.036 0.648,-0.048 C 2.052,7.668 2.076,7.632 2.076,7.572 c 0,-0.024 -0.012,-0.108 -0.048,-0.2399997 L 0.888,2.76 C 0.828,2.532 0.804,2.304 0.804,2.0640001 0.804,0.684 1.8000001,-0.264 3.18,-0.264 c 0.78,0 1.5,0.3 2.16,0.912 0.636,0.576 1.044,1.248 1.236,2.028 l 1.056,4.212 c 0.156,0.612 0.492,0.828 1.236,0.84 0.168,0.012 0.252,0.108 0.252,0.288 V 8.064 C 9.084,8.148 9.024,8.196 8.916,8.196 8.688,8.196 7.932,8.16 7.704,8.16 7.476,8.16 6.708,8.196 6.48,8.196 Z"
               id="path145" />
          </g>
        </g>
      </g>
      <g
         transform="translate(299.01,11.16)"
         id="g7836">
        <g
           class="typst-text"
           transform="scale(1,-1)"
           id="g8167">
          <g
             id="g3327">
            <path
               d="M 2.5451999,5.5776 C 2.184,5.2247996 1.6464,5.0484 0.91559994,5.0484 V 4.6787996 c 0.49559996,0 0.89040006,0.0756 1.19279996,0.2184 V 0.714 C 2.1083999,0.6048 2.1,0.5376 2.0748,0.504 2.0328,0.4116 1.7808,0.36119998 1.3188,0.36119998 H 0.9744 V 0 c 0,0 1.4952,0.0336 1.4952,0.0336 C 2.4696,0.0336 3.9731998,0 3.9731998,0 V 0.36119998 H 3.6288 c -0.4620002,0 -0.714,0.0504 -0.7644,0.14280002 -0.0168,0.0336 -0.0252,0.1008 -0.0252,0.21 v 4.5947997 c 0,0.2268 -0.0336,0.2688003 -0.2939999,0.2688003 z"
               id="path8749" />
          </g>
        </g>
      </g>
    </g>
  </g>
  <g
     inkscape:label=""
     transform="translate(48.709648,16.628182)"
     id="g2">
    <g
       id="g2620"
       transform="matrix(0.352778,0,0,0.352778,-105.017,-1.4097)">
      <g
         transform="translate(294.638,7.992)"
         id="g3283">
        <g
           class="typst-text"
           transform="scale(1,-1)"
           id="g818">
          <g
             id="g4320">
            <path
               d="M 3.228,7.992 C 2.736,7.488 2.016,7.236 1.068,7.236 V 6.768 c 0.624,0 1.14,0.096 1.536,0.288 V 0.984 C 2.604,0.768 2.556,0.624 2.448,0.564 2.34,0.504 2.04,0.468 1.5600001,0.468 H 1.14 V 0 C 1.44,0.024 2.088,0.036 3.084,0.036 4.08,0.036 4.728,0.024 5.028,0 V 0.468 H 4.608 C 4.116,0.468 3.816,0.504 3.72,0.564 3.624,0.624 3.5640001,0.768 3.5640001,0.984 v 6.648 c 0,0.288 -0.024,0.36 -0.3360001,0.36 z"
               id="path8978" />
          </g>
        </g>
      </g>
    </g>
  </g>
</svg>
