<?xml version="1.0" encoding="UTF-8" standalone="no"?>
<!-- Created with Inkscape (http://www.inkscape.org/) -->

<svg
   width="80mm"
   height="50.000999mm"
   viewBox="0 0 79.999996 50.000997"
   version="1.1"
   id="svg1"
   inkscape:version="1.3.2 (091e20e, 2023-11-25)"
   sodipodi:docname="groupinverse.svg"
   inkscape:export-filename="groupinverse.pdf"
   inkscape:export-xdpi="96"
   inkscape:export-ydpi="96"
   xmlns:inkscape="http://www.inkscape.org/namespaces/inkscape"
   xmlns:sodipodi="http://sodipodi.sourceforge.net/DTD/sodipodi-0.dtd"
   xmlns="http://www.w3.org/2000/svg"
   xmlns:svg="http://www.w3.org/2000/svg">
  <sodipodi:namedview
     id="namedview1"
     pagecolor="#ffffff"
     bordercolor="#000000"
     borderopacity="0.25"
     inkscape:showpageshadow="2"
     inkscape:pageopacity="0.0"
     inkscape:pagecheckerboard="0"
     inkscape:deskcolor="#d1d1d1"
     inkscape:document-units="mm"
     showgrid="true"
     inkscape:zoom="4.710799"
     inkscape:cx="127.79149"
     inkscape:cy="115.16093"
     inkscape:window-width="2144"
     inkscape:window-height="1408"
     inkscape:window-x="400"
     inkscape:window-y="25"
     inkscape:window-maximized="0"
     inkscape:current-layer="layer1">
    <inkscape:grid
       id="grid1"
       units="px"
       originx="0"
       originy="0"
       spacingx="0.26458333"
       spacingy="0.26458334"
       empcolor="#0099e5"
       empopacity="0.30196078"
       color="#0099e5"
       opacity="0.14901961"
       empspacing="5"
       dotted="false"
       gridanglex="30"
       gridanglez="30"
       visible="true" />
  </sodipodi:namedview>
  <defs
     id="defs1">
    <marker
       style="overflow:visible"
       id="DartArrow"
       refX="0"
       refY="0"
       orient="auto-start-reverse"
       inkscape:stockid="Dart arrow"
       markerWidth="1"
       markerHeight="1"
       viewBox="0 0 1 1"
       inkscape:isstock="true"
       inkscape:collect="always"
       preserveAspectRatio="xMidYMid">
      <path
         style="fill:context-stroke;fill-rule:evenodd;stroke:none"
         d="M 0,0 5,-5 -12.5,0 5,5 Z"
         transform="scale(-0.5)"
         id="path6" />
    </marker>
    <clipPath
       id="clipPath4411">
      <path
         clip-rule="nonzero"
         d="M 0,0 H 11.699219 V 10.550781 H 0 Z m 0,0"
         id="path8030" />
    </clipPath>
    <clipPath
       id="clipPath903">
      <path
         clip-rule="nonzero"
         d="M 0,0 H 8.773438 V 7.914063 H 0 Z m 0,0"
         id="path9923" />
    </clipPath>
    <clipPath
       id="clipPath903-2">
      <path
         clip-rule="nonzero"
         d="M 0,0 H 8.773438 V 7.914063 H 0 Z m 0,0"
         id="path9923-0" />
    </clipPath>
    <marker
       style="overflow:visible"
       id="DartArrow-6"
       refX="0"
       refY="0"
       orient="auto-start-reverse"
       inkscape:stockid="Dart arrow"
       markerWidth="1"
       markerHeight="1"
       viewBox="0 0 1 1"
       inkscape:isstock="true"
       inkscape:collect="always"
       preserveAspectRatio="xMidYMid">
      <path
         style="fill:context-stroke;fill-rule:evenodd;stroke:none"
         d="M 0,0 5,-5 -12.5,0 5,5 Z"
         transform="scale(-0.5)"
         id="path6-3" />
    </marker>
  </defs>
  <g
     inkscape:label="Layer 1"
     inkscape:groupmode="layer"
     id="layer1">
    <text
       xml:space="preserve"
       style="font-style:italic;font-weight:500;font-size:4.9389px;font-family:'STIX Two Text';-inkscape-font-specification:'STIX Two Text Medium Italic';fill:none;stroke:#000000;stroke-width:0.4;stroke-dasharray:none;stroke-opacity:1"
       x="37.041668"
       y="14.552084"
       id="text28"><tspan
         sodipodi:role="line"
         id="tspan28"
         style="stroke:#000000;stroke-width:0.4;stroke-opacity:1"
         x="37.041668"
         y="14.552084" /></text>
    <text
       xml:space="preserve"
       style="font-style:italic;font-weight:500;font-size:4.9389px;font-family:'STIX Two Text';-inkscape-font-specification:'STIX Two Text Medium Italic';fill:#000000;fill-opacity:1;stroke:none;stroke-width:0.4;stroke-dasharray:none;stroke-opacity:1"
       x="37.76062"
       y="17.89995"
       id="text29"><tspan
         sodipodi:role="line"
         id="tspan29"
         style="fill:#000000;fill-opacity:1;stroke:none;stroke-width:0.4"
         x="37.76062"
         y="17.89995">=</tspan></text>
    <path
       style="fill:none;stroke:#000000;stroke-width:0.264583px;stroke-linecap:butt;stroke-linejoin:miter;stroke-opacity:1"
       d="M 30.272567,18.478501 30.137521,8.0879248"
       id="path225"
       sodipodi:nodetypes="cc" />
    <path
       style="fill:none;stroke:#000000;stroke-width:0.152892;stroke-linecap:butt;stroke-linejoin:miter;stroke-dasharray:none;stroke-opacity:1;marker-end:url(#DartArrow)"
       d="M 30.137521,14.509751 H 28.512185"
       id="path1"
       sodipodi:nodetypes="cc" />
    <path
       style="fill:none;stroke:#000000;stroke-width:0.264583px;stroke-linecap:butt;stroke-linejoin:miter;stroke-opacity:1"
       d="M 49.015441,18.424456 48.880395,8.0338796"
       id="path225-3"
       sodipodi:nodetypes="cc" />
    <path
       style="fill:none;stroke:#000000;stroke-width:0.152892;stroke-linecap:butt;stroke-linejoin:miter;stroke-dasharray:none;stroke-opacity:1;marker-end:url(#DartArrow-6)"
       d="m 48.947918,14.552084 1.97185,-0.04233"
       id="path1-0"
       sodipodi:nodetypes="cc" />
  </g>
  <g
     inkscape:label=""
     transform="translate(30.92506,22.097577)"
     id="g5">
    <g
       id="g2371"
       transform="matrix(0.352778,0,0,0.352778,-104.982,-2.27076)">
      <g
         transform="translate(290.835,8.196)"
         id="g3687">
        <g
           class="typst-text"
           transform="scale(1,-1)"
           id="g464">
          <g
             id="g8767">
            <path
               d="M 6.48,8.196 C 6.3,8.196 6.216,8.1 6.216,7.908 6.216,7.8 6.3,7.7400002 6.468,7.728 6.984,7.728 7.236,7.572 7.236,7.26 7.236,7.188 7.224,7.104 7.2,7.02 L 6.132,2.784 C 5.952,2.1 5.604,1.512 5.088,1.008 4.524,0.468 3.9,0.204 3.228,0.204 2.34,0.204 1.824,0.804 1.824,1.692 L 1.836,1.8000001 C 1.836,2.028 1.872,2.292 1.956,2.604 l 1.152,4.62 c 0.06,0.252 0.168,0.408 0.324,0.468 0.072,0.024 0.276,0.036 0.624,0.036 0.312,0 0.444,0 0.444,0.288 0,0.12 -0.072,0.18 -0.204,0.18 0,0 -1.524,-0.036 -1.524,-0.036 0,0 -1.524,0.036 -1.524,0.036 C 1.056,8.196 0.972,8.088 0.972,7.908 0.972,7.824 1.008,7.764 1.068,7.752 1.188,7.74 1.284,7.728 1.344,7.728 1.716,7.716 1.932,7.692 1.992,7.68 2.052,7.668 2.076,7.632 2.076,7.572 2.076,7.548 2.064,7.464 2.028,7.3320003 L 0.888,2.76 C 0.828,2.532 0.804,2.304 0.804,2.0640001 0.804,0.684 1.8000001,-0.264 3.18,-0.264 c 0.78,0 1.5,0.3 2.16,0.912 0.636,0.576 1.044,1.248 1.236,2.028 L 7.632,6.888 C 7.788,7.5 8.124,7.716 8.868,7.728 9.036,7.74 9.12,7.836 9.12,8.016 V 8.064 C 9.084,8.148 9.024,8.196 8.916,8.196 8.688,8.196 7.932,8.16 7.704,8.16 7.476,8.16 6.708,8.196 6.48,8.196 Z"
               id="path9291" />
          </g>
        </g>
      </g>
      <g
         transform="translate(299.031,11.16)"
         id="g9693">
        <g
           class="typst-text"
           transform="scale(1,-1)"
           id="g4902">
          <g
             id="g3985">
            <path
               d="m 2.1,-0.0168 c 0.3276,0 0.6552,0.12599999 0.9744,0.3864 -0.2352002,-0.9996 -0.3948,-1.7807999 -1.512,-1.7807999 -0.21,0 -0.3948001,0.0084 -0.546,0.0336 0.1344,0.0924 0.2015999,0.2268 0.2015999,0.4032 0,0.22680004 -0.1175999,0.33600004 -0.3527999,0.33600004 -0.2856,0 -0.50400002,-0.25200004 -0.50400002,-0.53760004 0,-0.252 0.15120002,-0.4116 0.45359998,-0.4704 0.22680004,-0.042 0.47880004,-0.0672 0.75600004,-0.0672 0.4536,0 0.8568,0.084 1.2095998,0.2519999 C 3.2087998,-1.2515999 3.4692,-0.9492 3.57,-0.55439997 L 4.4688,3.066 c 0.0252,0.0924 0.0336,0.1511998 0.0336,0.1848 0,0.1931998 -0.1008,0.2939998 -0.3108,0.2939998 -0.1932,0 -0.3192002,-0.0924 -0.3948,-0.2688 -0.2016002,0.2856002 -0.4788002,0.4284 -0.84,0.4284 C 2.3939998,3.7043998 1.8984,3.4608 1.4616,2.9736 1.0248,2.4864 0.80639994,1.9488 0.80639994,1.3692 0.80639994,0.588 1.3188,-0.0168 2.1,-0.0168 Z M 3.3683999,3.2508 C 3.5616,3.0744 3.6539998,2.9064 3.6623998,2.7384 l -0.3948,-1.6128 C 3.2424,1.0331999 3.192,0.94079995 3.0995998,0.83159995 2.7888,0.46199998 2.4696,0.27719998 2.1252,0.27719998 c -0.3948,0 -0.588,0.25199998 -0.588,0.75599992 0,0.2016001 0.0504,0.4872 0.1428,0.8484 C 1.7723999,2.2428 1.8648,2.5031998 1.9655999,2.6711998 2.2596,3.1583998 2.5872,3.402 2.9568,3.402 c 0.1596,0 0.3023999,-0.0504 0.4115999,-0.1512 z"
               id="path2319" />
          </g>
        </g>
      </g>
    </g>
  </g>
  <g
     inkscape:label=""
     transform="translate(50.686084,22.15388)"
     id="g7">
    <g
       id="g9472"
       transform="matrix(0.352778,0,0,0.352778,-104.806,-2.27076)">
      <g
         transform="translate(286.223,8.196)"
         id="g932">
        <g
           class="typst-text"
           transform="scale(1,-1)"
           id="g2110">
          <g
             id="g896">
            <path
               d="M 6.48,8.196 C 6.3,8.196 6.216,8.1 6.216,7.908 6.216,7.8 6.3,7.7400002 6.468,7.728 6.984,7.728 7.236,7.572 7.236,7.26 7.236,7.188 7.224,7.104 7.2,7.02 L 6.132,2.784 C 5.952,2.1 5.604,1.512 5.088,1.008 4.524,0.468 3.9,0.204 3.228,0.204 2.34,0.204 1.824,0.804 1.824,1.692 L 1.836,1.8000001 C 1.836,2.028 1.872,2.292 1.956,2.604 l 1.152,4.62 c 0.06,0.252 0.168,0.408 0.324,0.468 0.072,0.024 0.276,0.036 0.624,0.036 0.312,0 0.444,0 0.444,0.288 0,0.12 -0.072,0.18 -0.204,0.18 0,0 -1.524,-0.036 -1.524,-0.036 0,0 -1.524,0.036 -1.524,0.036 C 1.056,8.196 0.972,8.088 0.972,7.908 0.972,7.824 1.008,7.764 1.068,7.752 1.188,7.74 1.284,7.728 1.344,7.728 1.716,7.716 1.932,7.692 1.992,7.68 2.052,7.668 2.076,7.632 2.076,7.572 2.076,7.548 2.064,7.464 2.028,7.3320003 L 0.888,2.76 C 0.828,2.532 0.804,2.304 0.804,2.0640001 0.804,0.684 1.8000001,-0.264 3.18,-0.264 c 0.78,0 1.5,0.3 2.16,0.912 0.636,0.576 1.044,1.248 1.236,2.028 L 7.632,6.888 C 7.788,7.5 8.124,7.716 8.868,7.728 9.036,7.74 9.12,7.836 9.12,8.016 V 8.064 C 9.084,8.148 9.024,8.196 8.916,8.196 8.688,8.196 7.932,8.16 7.704,8.16 7.476,8.16 6.708,8.196 6.48,8.196 Z"
               id="path8169" />
          </g>
        </g>
      </g>
      <g
         transform="translate(294.419,4.7364)"
         id="g3447">
        <g
           class="typst-group"
           id="g9012">
          <g
             id="g841">
            <g
               transform="translate(0,6.4236)"
               id="g467">
              <g
                 class="typst-text"
                 transform="scale(1,-1)"
                 id="g8943">
                <g
                   id="g4287">
                  <path
                     d="m 2.1,-0.0168 c 0.3276,0 0.6552,0.12599999 0.9744,0.3864 -0.2352002,-0.9996 -0.3948,-1.7807999 -1.512,-1.7807999 -0.21,0 -0.3948001,0.0084 -0.546,0.0336 0.1344,0.0924 0.2015999,0.2268 0.2015999,0.4032 0,0.22680004 -0.1175999,0.33600004 -0.3527999,0.33600004 -0.2856,0 -0.50400002,-0.25200004 -0.50400002,-0.53760004 0,-0.252 0.15120002,-0.4116 0.45359998,-0.4704 0.22680004,-0.042 0.47880004,-0.0672 0.75600004,-0.0672 0.4536,0 0.8568,0.084 1.2095998,0.2519999 C 3.2087998,-1.2515999 3.4692,-0.9492 3.57,-0.55439997 L 4.4688,3.066 c 0.0252,0.0924 0.0336,0.1511998 0.0336,0.1848 0,0.1931998 -0.1008,0.2939998 -0.3108,0.2939998 -0.1932,0 -0.3192002,-0.0924 -0.3948,-0.2688 -0.2016002,0.2856002 -0.4788002,0.4284 -0.84,0.4284 C 2.3939998,3.7043998 1.8984,3.4608 1.4616,2.9736 1.0248,2.4864 0.80639994,1.9488 0.80639994,1.3692 0.80639994,0.588 1.3188,-0.0168 2.1,-0.0168 Z M 3.3683999,3.2508 C 3.5616,3.0744 3.6539998,2.9064 3.6623998,2.7384 l -0.3948,-1.6128 C 3.2424,1.0331999 3.192,0.94079995 3.0995998,0.83159995 2.7888,0.46199998 2.4696,0.27719998 2.1252,0.27719998 c -0.3948,0 -0.588,0.25199998 -0.588,0.75599992 0,0.2016001 0.0504,0.4872 0.1428,0.8484 C 1.7723999,2.2428 1.8648,2.5031998 1.9655999,2.6711998 2.2596,3.1583998 2.5872,3.402 2.9568,3.402 c 0.1596,0 0.3023999,-0.0504 0.4115999,-0.1512 z"
                     id="path9680" />
                </g>
              </g>
            </g>
            <g
               transform="translate(4.7376,3.996)"
               id="g5081">
              <g
                 class="typst-text"
                 transform="scale(1,-1)"
                 id="g9650">
                <g
                   id="g7637">
                  <path
                     d="M 4.164,1.656 H 0.504 C 0.384,1.656 0.336,1.578 0.336,1.5 0.336,1.422 0.384,1.344 0.504,1.344 h 3.66 c 0.12,0 0.1680003,0.078 0.1680003,0.156 0,0.072 -0.048,0.156 -0.1680003,0.156 z"
                     id="path9756" />
                </g>
              </g>
            </g>
            <g
               transform="translate(9.4056,3.996)"
               id="g6998">
              <g
                 class="typst-text"
                 transform="scale(1,-1)"
                 id="g9680">
                <g
                   id="g7701">
                  <path
                     d="M 2.16,3.996 C 1.8840001,3.744 1.494,3.618 0.984,3.618 H 0.858 V 3.306 h 0.126 c 0.306,0 0.582,0.054 0.834,0.1560001 V 0.534 C 1.818,0.468 1.812,0.42000002 1.794,0.396 1.764,0.336 1.572,0.306 1.218,0.306 H 0.90000004 V 0 C 1.1340001,0.018 1.536,0.024 2.112,0.024 2.688,0.024 3.09,0.018 3.3240001,0 V 0.306 H 3.006 C 2.652,0.306 2.46,0.336 2.424,0.396 2.412,0.42 2.406,0.468 2.406,0.534 v 3.258 c 0,0.204 -0.024,0.204 -0.246,0.204 z"
                     id="path9451" />
                </g>
              </g>
            </g>
          </g>
        </g>
      </g>
    </g>
  </g>
</svg>
