<?xml version="1.0" encoding="UTF-8" standalone="no"?>
<!-- Created with Inkscape (http://www.inkscape.org/) -->

<svg
   width="100mm"
   height="50.000999mm"
   viewBox="0 0 99.999995 50.000997"
   version="1.1"
   id="svg1"
   inkscape:version="1.3.2 (091e20e, 2023-11-25)"
   sodipodi:docname="junction.svg"
   inkscape:export-filename="flatgaugefield.pdf"
   inkscape:export-xdpi="96"
   inkscape:export-ydpi="96"
   xmlns:inkscape="http://www.inkscape.org/namespaces/inkscape"
   xmlns:sodipodi="http://sodipodi.sourceforge.net/DTD/sodipodi-0.dtd"
   xmlns="http://www.w3.org/2000/svg"
   xmlns:svg="http://www.w3.org/2000/svg">
  <sodipodi:namedview
     id="namedview1"
     pagecolor="#ffffff"
     bordercolor="#000000"
     borderopacity="0.25"
     inkscape:showpageshadow="2"
     inkscape:pageopacity="0.0"
     inkscape:pagecheckerboard="0"
     inkscape:deskcolor="#d1d1d1"
     inkscape:document-units="mm"
     showgrid="true"
     inkscape:zoom="4.8142857"
     inkscape:cx="103.44214"
     inkscape:cy="96.48368"
     inkscape:window-width="2144"
     inkscape:window-height="1408"
     inkscape:window-x="400"
     inkscape:window-y="25"
     inkscape:window-maximized="0"
     inkscape:current-layer="layer1">
    <inkscape:grid
       id="grid1"
       units="px"
       originx="0"
       originy="0"
       spacingx="0.26458333"
       spacingy="0.26458334"
       empcolor="#0099e5"
       empopacity="0.30196078"
       color="#0099e5"
       opacity="0.14901961"
       empspacing="5"
       dotted="false"
       gridanglex="30"
       gridanglez="30"
       visible="true" />
  </sodipodi:namedview>
  <defs
     id="defs1">
    <marker
       style="overflow:visible"
       id="ConcaveTriangle"
       refX="0"
       refY="0"
       orient="auto-start-reverse"
       inkscape:stockid="Concave triangle arrow"
       markerWidth="1"
       markerHeight="1"
       viewBox="0 0 1 1"
       inkscape:isstock="true"
       inkscape:collect="always"
       preserveAspectRatio="xMidYMid">
      <path
         transform="scale(0.7)"
         d="M -2,-4 9,0 -2,4 c 2,-2.33 2,-5.66 0,-8 z"
         style="fill:context-stroke;fill-rule:evenodd;stroke:none"
         id="path7" />
    </marker>
    <marker
       style="overflow:visible"
       id="ConcaveTriangle-5"
       refX="0"
       refY="0"
       orient="auto-start-reverse"
       inkscape:stockid="Concave triangle arrow"
       markerWidth="1"
       markerHeight="1"
       viewBox="0 0 1 1"
       inkscape:isstock="true"
       inkscape:collect="always"
       preserveAspectRatio="xMidYMid">
      <path
         transform="scale(0.7)"
         d="M -2,-4 9,0 -2,4 c 2,-2.33 2,-5.66 0,-8 z"
         style="fill:context-stroke;fill-rule:evenodd;stroke:none"
         id="path7-3" />
    </marker>
    <marker
       style="overflow:visible"
       id="ConcaveTriangle-7"
       refX="0"
       refY="0"
       orient="auto-start-reverse"
       inkscape:stockid="Concave triangle arrow"
       markerWidth="1"
       markerHeight="1"
       viewBox="0 0 1 1"
       inkscape:isstock="true"
       inkscape:collect="always"
       preserveAspectRatio="xMidYMid">
      <path
         transform="scale(0.7)"
         d="M -2,-4 9,0 -2,4 c 2,-2.33 2,-5.66 0,-8 z"
         style="fill:context-stroke;fill-rule:evenodd;stroke:none"
         id="path7-1" />
    </marker>
  </defs>
  <g
     inkscape:label="Layer 1"
     inkscape:groupmode="layer"
     id="layer1">
    <text
       xml:space="preserve"
       style="font-style:italic;font-weight:500;font-size:4.9389px;font-family:'STIX Two Text';-inkscape-font-specification:'STIX Two Text Medium Italic';fill:none;stroke:#000000;stroke-width:0.4;stroke-dasharray:none;stroke-opacity:1"
       x="37.041668"
       y="14.552084"
       id="text28"><tspan
         sodipodi:role="line"
         id="tspan28"
         style="stroke:#000000;stroke-width:0.4;stroke-opacity:1"
         x="37.041668"
         y="14.552084" /></text>
    <path
       style="fill:none;fill-opacity:1;stroke:#000000;stroke-width:0.265;stroke-dasharray:none;stroke-dashoffset:0;stroke-opacity:1"
       d="m 22.051792,5.6937452 6.373987,10.1981908 14.563437,3.650495"
       id="path12" />
    <path
       style="fill:none;fill-opacity:1;stroke:#000000;stroke-width:0.264999;stroke-dasharray:none;stroke-dashoffset:0;stroke-opacity:1"
       d="m 14.666382,28.39982 c 0,0 4.903702,-6.30867 7.27305,-8.35361 2.369348,-2.04494 6.486347,-4.154274 6.486347,-4.154274"
       id="path13"
       sodipodi:nodetypes="czc" />
    <path
       style="fill:none;fill-opacity:1;stroke:#000000;stroke-width:0.165;stroke-dasharray:none;stroke-dashoffset:0;stroke-opacity:1;marker-end:url(#ConcaveTriangle)"
       d="M 18.520833,23.812501 17.197916,22.489585"
       id="path14" />
    <path
       style="fill:none;fill-opacity:1;stroke:#000000;stroke-width:0.165;stroke-dasharray:none;stroke-dashoffset:0;stroke-opacity:1;marker-end:url(#ConcaveTriangle-5)"
       d="m 32.468379,16.88286 0.604538,-1.76258"
       id="path14-6"
       inkscape:transform-center-x="15.104836"
       inkscape:transform-center-y="10.175825"
       sodipodi:nodetypes="cc" />
    <path
       style="fill:none;fill-opacity:1;stroke:#000000;stroke-width:0.165;stroke-dasharray:none;stroke-dashoffset:0;stroke-opacity:1;marker-end:url(#ConcaveTriangle-7)"
       d="M 23.812501,7.9375006 25.465165,6.9469014"
       id="path14-4"
       sodipodi:nodetypes="cc" />
    <g
       inkscape:label=""
       transform="translate(12.348633,26.098504)"
       id="g14">
      <g
         id="g599"
         transform="matrix(0.352778,0,0,0.352778,-1.03505,-2.38972)">
        <g
           transform="translate(0,8.196)"
           id="g4625">
          <g
             class="typst-text"
             transform="scale(1,-1)"
             id="g969">
            <g
               id="g4841">
              <path
                 d="m 0.18,-1.692 c 0,-0.516 0.54,-0.768 1.6200001,-0.768 0.5639999,0 1.0919999,0.144 1.56,0.42 C 3.888,-1.728 4.212,-1.308 4.344,-0.792 l 1.308,5.268 c 0.024,0.12 0.036,0.192 0.036,0.228 0,0.2400002 -0.132,0.36 -0.384,0.36 C 5.04,5.064 4.872,4.92 4.788,4.644 4.524,5.088 4.164,5.304 3.72,5.304 2.9520001,5.304 2.2680001,4.92 1.6800001,4.152 1.14,3.432 0.864,2.676 0.864,1.896 c 0,-1.044 0.6120001,-1.932 1.62,-1.932 0.4680001,0 0.9,0.204 1.296,0.6 L 3.42,-0.852 C 3.072,-1.6800001 2.532,-2.1 1.776,-2.1 c -0.312,0 -0.576,0.024 -0.792,0.072 0.2520001,0.132 0.3720001,0.336 0.3720001,0.612 0,0.3 -0.1680001,0.45599996 -0.4920001,0.45599996 C 0.48000002,-0.96000004 0.18,-1.308 0.18,-1.692 Z M 4.272,4.704 C 4.512,4.452 4.632,4.212 4.632,3.9720001 4.632,3.96 4.62,3.9 4.596,3.816 L 4.032,1.548 C 3.96,1.272 3.756,0.984 3.432,0.72 3.108,0.456 2.796,0.324 2.52,0.324 c -0.48,0 -0.7199999,0.348 -0.7199999,1.044 0,0.66 0.4079999,2.124 0.6479999,2.556 0.372,0.684 0.792,1.0200002 1.284,1.0200002 0.216,0 0.3960003,-0.084 0.54,-0.2400002 z"
                 id="path4791" />
            </g>
          </g>
        </g>
      </g>
    </g>
    <g
       inkscape:label=""
       transform="translate(20.192945,5.4546495)"
       id="g15">
      <g
         id="g4219"
         transform="matrix(0.352778,0,0,0.352778,-105.053,-1.49225)">
        <g
           transform="translate(294.182,8.328)"
           id="g3543">
          <g
             class="typst-text"
             transform="scale(1,-1)"
             id="g9692">
            <g
               id="g1119">
              <path
                 d="M 6.144,1.656 C 5.868,0.708 5.484,0.228 4.98,0.228 c -0.156,0 -0.2399998,0.108 -0.2399998,0.336 0,0.18 0.072,0.456 0.2159998,0.828 0.48,1.284 0.72,2.16 0.72,2.628 0,0.852 -0.552,1.32 -1.404,1.32 C 3.636,5.34 3.084,5.076 2.616,4.56 L 3.492,8.148 C 3.468,8.2560005 3.444,8.328 3.288,8.328 2.892,8.328 2.016,8.22 1.86,8.208 1.6800001,8.184 1.584,8.1 1.584,7.92 1.584,7.8 1.692,7.7400002 1.908,7.7400002 2.16,7.7400002 2.436,7.752 2.46,7.584 L 0.708,0.51600003 C 0.672,0.384 0.66,0.3 0.66,0.252 0.66,0 0.792,-0.132 1.044,-0.132 c 0.24,0 0.408,0.12 0.492,0.348 l 0.48,1.968 C 2.16,2.772 2.2680001,3.216 2.352,3.516 2.388,3.6000001 2.484,3.7680001 2.64,4.008 3.072,4.656 3.6000001,4.98 4.236,4.98 4.632,4.98 4.824,4.716 4.824,4.2 4.824,3.708 4.584,2.832 4.104,1.5600001 3.996,1.284 3.948,1.068 3.948,0.888 c 0,-0.576 0.432,-1.02 1.008,-1.02 0.528,0 0.9480003,0.3 1.248,0.91200003 C 6.432,1.26 6.552,1.584 6.552,1.74 6.552,1.848 6.492,1.908 6.36,1.908 6.324,1.908 6.144,1.8000001 6.144,1.656 Z"
                 id="path2818" />
            </g>
          </g>
        </g>
      </g>
    </g>
    <g
       inkscape:label=""
       transform="translate(46.938912,20.290364)"
       id="g16">
      <g
         id="g7648"
         transform="matrix(0.352778,0,0,0.352778,-105.057,-1.90288)">
        <g
           transform="translate(291.17,8.328)"
           id="g9758">
          <g
             class="typst-text"
             transform="scale(1,-1)"
             id="g153">
            <g
               id="g5317">
              <path
                 d="M 6.144,1.656 C 5.868,0.708 5.484,0.228 4.98,0.228 c -0.156,0 -0.2399998,0.108 -0.2399998,0.336 0,0.18 0.072,0.456 0.2159998,0.828 0.48,1.284 0.72,2.16 0.72,2.628 0,0.852 -0.552,1.32 -1.404,1.32 C 3.636,5.34 3.084,5.076 2.616,4.56 L 3.492,8.148 C 3.468,8.2560005 3.444,8.328 3.288,8.328 2.892,8.328 2.016,8.22 1.86,8.208 1.6800001,8.184 1.584,8.1 1.584,7.92 1.584,7.8 1.692,7.7400002 1.908,7.7400002 2.16,7.7400002 2.436,7.752 2.46,7.584 L 0.708,0.51600003 C 0.672,0.384 0.66,0.3 0.66,0.252 0.66,0 0.792,-0.132 1.044,-0.132 c 0.24,0 0.408,0.12 0.492,0.348 l 0.48,1.968 C 2.16,2.772 2.2680001,3.216 2.352,3.516 2.388,3.6000001 2.484,3.7680001 2.64,4.008 3.072,4.656 3.6000001,4.98 4.236,4.98 4.632,4.98 4.824,4.716 4.824,4.2 4.824,3.708 4.584,2.832 4.104,1.5600001 3.996,1.284 3.948,1.068 3.948,0.888 c 0,-0.576 0.432,-1.02 1.008,-1.02 0.528,0 0.9480003,0.3 1.248,0.91200003 C 6.432,1.26 6.552,1.584 6.552,1.74 6.552,1.848 6.492,1.908 6.36,1.908 6.324,1.908 6.144,1.8000001 6.144,1.656 Z"
                 id="path1899" />
            </g>
          </g>
        </g>
        <g
           transform="translate(298.082,8.328)"
           id="g6920">
          <g
             class="typst-text"
             transform="scale(1,-1)"
             id="g2865">
            <g
               id="g9193">
              <path
                 d="m 0.18,-1.692 c 0,-0.516 0.54,-0.768 1.6200001,-0.768 0.5639999,0 1.0919999,0.144 1.56,0.42 C 3.888,-1.728 4.212,-1.308 4.344,-0.792 l 1.308,5.268 c 0.024,0.12 0.036,0.192 0.036,0.228 0,0.2400002 -0.132,0.36 -0.384,0.36 C 5.04,5.064 4.872,4.92 4.788,4.644 4.524,5.088 4.164,5.304 3.72,5.304 2.9520001,5.304 2.2680001,4.92 1.6800001,4.152 1.14,3.432 0.864,2.676 0.864,1.896 c 0,-1.044 0.6120001,-1.932 1.62,-1.932 0.4680001,0 0.9,0.204 1.296,0.6 L 3.42,-0.852 C 3.072,-1.6800001 2.532,-2.1 1.776,-2.1 c -0.312,0 -0.576,0.024 -0.792,0.072 0.2520001,0.132 0.3720001,0.336 0.3720001,0.612 0,0.3 -0.1680001,0.45599996 -0.4920001,0.45599996 C 0.48000002,-0.96000004 0.18,-1.308 0.18,-1.692 Z M 4.272,4.704 C 4.512,4.452 4.632,4.212 4.632,3.9720001 4.632,3.96 4.62,3.9 4.596,3.816 L 4.032,1.548 C 3.96,1.272 3.756,0.984 3.432,0.72 3.108,0.456 2.796,0.324 2.52,0.324 c -0.48,0 -0.7199999,0.348 -0.7199999,1.044 0,0.66 0.4079999,2.124 0.6479999,2.556 0.372,0.684 0.792,1.0200002 1.284,1.0200002 0.216,0 0.3960003,-0.084 0.54,-0.2400002 z"
                 id="path4499" />
            </g>
          </g>
        </g>
      </g>
    </g>
  </g>
</svg>
