<?xml version="1.0" encoding="UTF-8" standalone="no"?>
<!-- Created with Inkscape (http://www.inkscape.org/) -->

<svg
   width="80mm"
   height="50.000999mm"
   viewBox="0 0 79.999996 50.000997"
   version="1.1"
   id="svg1"
   inkscape:version="1.3.2 (091e20e, 2023-11-25)"
   sodipodi:docname="transformation1.svg"
   inkscape:export-filename="transformation1.pdf"
   inkscape:export-xdpi="96"
   inkscape:export-ydpi="96"
   xmlns:inkscape="http://www.inkscape.org/namespaces/inkscape"
   xmlns:sodipodi="http://sodipodi.sourceforge.net/DTD/sodipodi-0.dtd"
   xmlns="http://www.w3.org/2000/svg"
   xmlns:svg="http://www.w3.org/2000/svg">
  <sodipodi:namedview
     id="namedview1"
     pagecolor="#ffffff"
     bordercolor="#000000"
     borderopacity="0.25"
     inkscape:showpageshadow="2"
     inkscape:pageopacity="0.0"
     inkscape:pagecheckerboard="0"
     inkscape:deskcolor="#d1d1d1"
     inkscape:document-units="mm"
     showgrid="true"
     inkscape:zoom="6.6433725"
     inkscape:cx="162.11646"
     inkscape:cy="57.576178"
     inkscape:window-width="2144"
     inkscape:window-height="1408"
     inkscape:window-x="180"
     inkscape:window-y="83"
     inkscape:window-maximized="0"
     inkscape:current-layer="layer1">
    <inkscape:grid
       id="grid1"
       units="px"
       originx="0"
       originy="0"
       spacingx="0.26458333"
       spacingy="0.26458334"
       empcolor="#0099e5"
       empopacity="0.30196078"
       color="#0099e5"
       opacity="0.14901961"
       empspacing="5"
       dotted="false"
       gridanglex="30"
       gridanglez="30"
       visible="true" />
  </sodipodi:namedview>
  <defs
     id="defs1">
    <marker
       style="overflow:visible"
       id="DartArrow"
       refX="0"
       refY="0"
       orient="auto-start-reverse"
       inkscape:stockid="Dart arrow"
       markerWidth="1"
       markerHeight="1"
       viewBox="0 0 1 1"
       inkscape:isstock="true"
       inkscape:collect="always"
       preserveAspectRatio="xMidYMid">
      <path
         style="fill:context-stroke;fill-rule:evenodd;stroke:none"
         d="M 0,0 5,-5 -12.5,0 5,5 Z"
         transform="scale(-0.5)"
         id="path6" />
    </marker>
    <clipPath
       id="clipPath4411">
      <path
         clip-rule="nonzero"
         d="M 0,0 H 11.699219 V 10.550781 H 0 Z m 0,0"
         id="path8030" />
    </clipPath>
    <clipPath
       id="clipPath903">
      <path
         clip-rule="nonzero"
         d="M 0,0 H 8.773438 V 7.914063 H 0 Z m 0,0"
         id="path9923" />
    </clipPath>
    <clipPath
       id="clipPath903-2">
      <path
         clip-rule="nonzero"
         d="M 0,0 H 8.773438 V 7.914063 H 0 Z m 0,0"
         id="path9923-0" />
    </clipPath>
    <marker
       style="overflow:visible"
       id="DartArrow-2"
       refX="0"
       refY="0"
       orient="auto-start-reverse"
       inkscape:stockid="Dart arrow"
       markerWidth="1"
       markerHeight="1"
       viewBox="0 0 1 1"
       inkscape:isstock="true"
       inkscape:collect="always"
       preserveAspectRatio="xMidYMid">
      <path
         style="fill:context-stroke;fill-rule:evenodd;stroke:none"
         d="M 0,0 5,-5 -12.5,0 5,5 Z"
         transform="scale(-0.5)"
         id="path6-1" />
    </marker>
  </defs>
  <g
     inkscape:label="Layer 1"
     inkscape:groupmode="layer"
     id="layer1">
    <text
       xml:space="preserve"
       style="font-style:italic;font-weight:500;font-size:4.9389px;font-family:'STIX Two Text';-inkscape-font-specification:'STIX Two Text Medium Italic';fill:none;stroke:#000000;stroke-width:0.4;stroke-dasharray:none;stroke-opacity:1"
       x="37.041668"
       y="14.552084"
       id="text28"><tspan
         sodipodi:role="line"
         id="tspan28"
         style="stroke:#000000;stroke-width:0.4;stroke-opacity:1"
         x="37.041668"
         y="14.552084" /></text>
    <text
       xml:space="preserve"
       style="font-style:italic;font-weight:500;font-size:4.9389px;font-family:'STIX Two Text';-inkscape-font-specification:'STIX Two Text Medium Italic';fill:#000000;fill-opacity:1;stroke:none;stroke-width:0.4;stroke-dasharray:none;stroke-opacity:1"
       x="48.372921"
       y="16.337141"
       id="text29"><tspan
         sodipodi:role="line"
         id="tspan29"
         style="fill:#000000;fill-opacity:1;stroke:none;stroke-width:0.4"
         x="48.372921"
         y="16.337141">=</tspan></text>
    <path
       style="fill:none;stroke:#000000;stroke-width:0.264583px;stroke-linecap:butt;stroke-linejoin:miter;stroke-opacity:1"
       d="m 25.135417,18.520835 c 3.619739,4.87459 24.808167,1.962151 19.843751,-5.291667 -4.964417,-7.2538184 -26.074283,-3.0988 -19.843751,5.291667 z"
       id="path225"
       sodipodi:nodetypes="szs" />
    <path
       style="fill:none;stroke:#000000;stroke-width:0.165;stroke-linecap:butt;stroke-linejoin:miter;stroke-dasharray:none;stroke-opacity:1;marker-end:url(#DartArrow)"
       d="m 34.187701,20.834179 0.0045,1.322917"
       id="path1"
       sodipodi:nodetypes="cc" />
    <path
       style="fill:none;stroke:#000000;stroke-width:0.165;stroke-linecap:butt;stroke-linejoin:miter;stroke-dasharray:none;stroke-opacity:1;marker-end:url(#DartArrow-2)"
       d="m 33.989165,9.6347854 0.0045,-1.3229164"
       id="path1-5" />
    <g
       id="g1"
       transform="translate(6.2938051,-1.9447735)">
      <path
         style="fill:none;stroke:#000000;stroke-width:0.165;stroke-linecap:butt;stroke-linejoin:miter;stroke-dasharray:none;stroke-opacity:1"
         d="m 25.135417,16.404168 0.79375,0.79375"
         id="path2"
         sodipodi:nodetypes="cc" />
      <path
         style="fill:none;stroke:#000000;stroke-width:0.165;stroke-linecap:butt;stroke-linejoin:miter;stroke-dasharray:none;stroke-opacity:1"
         d="m 25.135417,17.197918 0.79375,-0.79375"
         id="path3"
         sodipodi:nodetypes="cc" />
    </g>
    <g
       id="g2"
       transform="translate(32.109804,-1.9447735)">
      <path
         style="fill:none;stroke:#000000;stroke-width:0.165;stroke-linecap:butt;stroke-linejoin:miter;stroke-dasharray:none;stroke-opacity:1"
         d="m 25.135417,16.404168 0.79375,0.79375"
         id="path2-9"
         sodipodi:nodetypes="cc" />
      <path
         style="fill:none;stroke:#000000;stroke-width:0.165;stroke-linecap:butt;stroke-linejoin:miter;stroke-dasharray:none;stroke-opacity:1"
         d="m 25.135417,17.197918 0.79375,-0.79375"
         id="path3-0"
         sodipodi:nodetypes="cc" />
    </g>
    <g
       inkscape:label=""
       transform="translate(38.701226,16.117355)"
       id="g3">
      <g
         id="g5326"
         transform="matrix(0.352778,0,0,0.352778,-105.051,-1.97273)">
        <g
           transform="translate(285.338,8.688)"
           id="g5565">
          <g
             class="typst-text"
             transform="scale(1,-1)"
             id="g1832">
            <g
               id="g9906">
              <path
                 d="m 3.696,-0.144 c 2.7480002,0 4.668,2.6520001 4.668,5.436 0,1.368 -0.468,2.736 -2.1239998,2.736 C 4.764,8.028 3.744,6.936 3.744,5.7000003 3.744,5.244 3.888,4.824 4.356,4.824 c 0.324,0 0.636,0.204 0.636,0.588 0,0.48 -0.468,0.588 -0.468,1.08 0,0.624 0.768,1.08 1.464,1.08 1.176,0 1.296,-1.296 1.296,-1.968 C 7.284,3.732 6.36,0.36 3.924,0.36 2.436,0.36 1.98,1.632 1.98,3.036 1.98,4.38 2.4,6.36 3.828,7.524 L 3.66,7.728 C 1.776,6.78 0.828,4.68 0.828,2.9160001 0.828,1.152 1.776,-0.144 3.696,-0.144 Z"
                 id="path9731" />
            </g>
          </g>
        </g>
        <g
           transform="translate(294.542,8.832)"
           id="g4451">
          <g
             class="typst-text"
             transform="scale(1,-1)"
             id="g4706">
            <g
               id="g9341">
              <path
                 d="m 0.54,3.24 c 0,-2.676 1.2600001,-4.584 3.192,-5.592 l 0.192,0.312 c -1.752,1.188 -2.4,2.832 -2.4,5.28 0,2.448 0.648,4.0920003 2.4,5.28 L 3.732,8.832 C 1.8000001,7.824 0.54,5.916 0.54,3.24 Z"
                 id="path3498" />
            </g>
          </g>
        </g>
        <g
           transform="translate(298.826,8.688)"
           id="g6486">
          <g
             class="typst-text"
             transform="scale(1,-1)"
             id="g968">
            <g
               id="g8416">
              <path
                 d="M 3.78,3.576 H 3.744 L 3.6000001,4.188 C 3.432,4.836 3.204,5.364 2.9160001,5.7000003 H 2.736 L 1.068,5.508 V 5.1480002 c 0,0 0.18,0.036 0.372,0.036 0.792,0.012 0.996,-0.312 1.32,-1.32 L 3.096,2.772 2.232,1.512 C 1.764,0.84000003 1.548,0.828 1.5,0.828 1.296,0.828 1.008,0.984 0.744,0.984 0.456,0.984 0.276,0.72 0.276,0.48000002 0.276,0.18 0.456,-0.108 0.972,-0.108 c 0.72,0 1.116,0.564 1.5000001,1.188 L 3.24,2.328 h 0.048 l 0.3,-1.212 C 3.756,0.336 4.02,-0.12000001 4.572,-0.12000001 5.388,-0.12000001 5.892,0.696 6.2400002,1.224 L 5.988,1.416 C 5.664,0.984 5.436,0.744 5.124,0.744 4.752,0.744 4.512,1.188 4.176,2.292 L 3.924,3.108 4.656,4.272 c 0.204,0.336 0.372,0.504 0.648,0.504 0.156,0 0.432,-0.12 0.624,-0.12 0.324,0 0.552,0.276 0.552,0.5640003 C 6.48,5.556 6.336,5.748 5.88,5.748 5.172,5.748 4.692,5.16 4.368,4.584 Z"
                 id="path2822" />
            </g>
          </g>
        </g>
        <g
           transform="translate(305.654,8.832)"
           id="g5117">
          <g
             class="typst-text"
             transform="scale(1,-1)"
             id="g8656">
            <g
               id="g3265">
              <path
                 d="m 3.744,3.24 c 0,2.676 -1.26,4.584 -3.192,5.592 L 0.36,8.52 c 1.752,-1.1879997 2.4,-2.832 2.4,-5.28 0,-2.448 -0.648,-4.092 -2.4,-5.28 l 0.192,-0.312 c 1.932,1.008 3.192,2.916 3.192,5.592 z"
                 id="path8865" />
            </g>
          </g>
        </g>
      </g>
    </g>
    <g
       inkscape:label=""
       transform="translate(65.141986,16.216837)"
       id="g4">
      <g
         id="g9010"
         transform="matrix(0.352778,0,0,0.352778,-105.051,-1.9831)">
        <g
           transform="translate(283.603,8.7468)"
           id="g3244">
          <g
             class="typst-text"
             transform="scale(1,-1)"
             id="g2542">
            <g
               id="g8696">
              <path
                 d="m 3.696,-0.144 c 2.7480002,0 4.668,2.6520001 4.668,5.436 0,1.368 -0.468,2.736 -2.1239998,2.736 C 4.764,8.028 3.744,6.936 3.744,5.7000003 3.744,5.244 3.888,4.824 4.356,4.824 c 0.324,0 0.636,0.204 0.636,0.588 0,0.48 -0.468,0.588 -0.468,1.08 0,0.624 0.768,1.08 1.464,1.08 1.176,0 1.296,-1.296 1.296,-1.968 C 7.284,3.732 6.36,0.36 3.924,0.36 2.436,0.36 1.98,1.632 1.98,3.036 1.98,4.38 2.4,6.36 3.828,7.524 L 3.66,7.728 C 1.776,6.78 0.828,4.68 0.828,2.9160001 0.828,1.152 1.776,-0.144 3.696,-0.144 Z"
                 id="path861" />
            </g>
          </g>
        </g>
        <g
           transform="translate(292.807,4.4268)"
           id="g2261">
          <g
             class="typst-text"
             transform="scale(1,-1)"
             id="g1292">
            <g
               id="g5616">
              <path
                 d="m 0.9072,0.714 c 0.4283999,0.7811999 1.2852,2.5115998 1.4364,2.9064 0.0336,0.084 0.0672,0.2435998 0.0672,0.3276 0,0.336 -0.2268,0.4788 -0.4872,0.4788 -0.2184,0 -0.4284001,-0.0672 -0.546,-0.4200003 C 1.2515999,3.6035998 0.798,1.6716 0.61319995,0.83159995 Z"
                 id="path4361" />
            </g>
          </g>
        </g>
        <g
           transform="translate(296.277,8.8908)"
           id="g1757">
          <g
             class="typst-text"
             transform="scale(1,-1)"
             id="g5471">
            <g
               id="g9265">
              <path
                 d="m 0.54,3.24 c 0,-2.676 1.2600001,-4.584 3.192,-5.592 l 0.192,0.312 c -1.752,1.188 -2.4,2.832 -2.4,5.28 0,2.448 0.648,4.0920003 2.4,5.28 L 3.732,8.832 C 1.8000001,7.824 0.54,5.916 0.54,3.24 Z"
                 id="path1802" />
            </g>
          </g>
        </g>
        <g
           transform="translate(300.561,8.7468)"
           id="g6107">
          <g
             class="typst-text"
             transform="scale(1,-1)"
             id="g383">
            <g
               id="g6123">
              <path
                 d="M 3.78,3.576 H 3.744 L 3.6000001,4.188 C 3.432,4.836 3.204,5.364 2.9160001,5.7000003 H 2.736 L 1.068,5.508 V 5.1480002 c 0,0 0.18,0.036 0.372,0.036 0.792,0.012 0.996,-0.312 1.32,-1.32 L 3.096,2.772 2.232,1.512 C 1.764,0.84000003 1.548,0.828 1.5,0.828 1.296,0.828 1.008,0.984 0.744,0.984 0.456,0.984 0.276,0.72 0.276,0.48000002 0.276,0.18 0.456,-0.108 0.972,-0.108 c 0.72,0 1.116,0.564 1.5000001,1.188 L 3.24,2.328 h 0.048 l 0.3,-1.212 C 3.756,0.336 4.02,-0.12000001 4.572,-0.12000001 5.388,-0.12000001 5.892,0.696 6.2400002,1.224 L 5.988,1.416 C 5.664,0.984 5.436,0.744 5.124,0.744 4.752,0.744 4.512,1.188 4.176,2.292 L 3.924,3.108 4.656,4.272 c 0.204,0.336 0.372,0.504 0.648,0.504 0.156,0 0.432,-0.12 0.624,-0.12 0.324,0 0.552,0.276 0.552,0.5640003 C 6.48,5.556 6.336,5.748 5.88,5.748 5.172,5.748 4.692,5.16 4.368,4.584 Z"
                 id="path563" />
            </g>
          </g>
        </g>
        <g
           transform="translate(307.389,8.8908)"
           id="g6309">
          <g
             class="typst-text"
             transform="scale(1,-1)"
             id="g2444">
            <g
               id="g2856">
              <path
                 d="m 3.744,3.24 c 0,2.676 -1.26,4.584 -3.192,5.592 L 0.36,8.52 c 1.752,-1.1879997 2.4,-2.832 2.4,-5.28 0,-2.448 -0.648,-4.092 -2.4,-5.28 l 0.192,-0.312 c 1.932,1.008 3.192,2.916 3.192,5.592 z"
                 id="path9719" />
            </g>
          </g>
        </g>
      </g>
    </g>
    <g
       inkscape:label=""
       transform="translate(17.483581,16.44438)"
       id="g6">
      <g
         id="g2329"
         transform="matrix(0.352778,0,0,0.352778,-105.108,-1.97273)">
        <g
           transform="translate(283.034,8.688)"
           id="g9856">
          <g
             class="typst-text"
             transform="scale(1,-1)"
             id="g6813">
            <g
               id="g2685">
              <path
                 d="M 9.624001,7.8840003 H 6.684 L 6.624,7.524 c 1.008,0 1.0560003,-0.276 0.804,-1.536 L 6.816,2.964 C 6.48,1.308 5.76,0.612 4.2,0.612 c -1.344,0 -1.812,0.48 -1.812,1.5 0,0.228 0.036,0.576 0.108,0.9 l 0.708,3.396 c 0.18,0.9 0.384,1.116 1.392,1.116 L 4.668,7.8840003 H 1.224 L 1.152,7.524 C 2.1,7.524 2.28,7.308 2.112,6.468 L 1.392,3 C 1.308,2.604 1.26,2.244 1.26,1.9200001 1.26,0.492 2.004,-0.144 3.744,-0.144 c 2.268,0 3.324,1.092 3.78,3.276 l 0.588,2.892 c 0.264,1.236 0.408,1.5 1.452,1.5 z"
                 id="path3573" />
            </g>
          </g>
        </g>
        <g
           transform="translate(292.706,8.832)"
           id="g8635">
          <g
             class="typst-text"
             transform="scale(1,-1)"
             id="g3566">
            <g
               id="g3279">
              <path
                 d="m 0.54,3.24 c 0,-2.676 1.2600001,-4.584 3.192,-5.592 l 0.192,0.312 c -1.752,1.188 -2.4,2.832 -2.4,5.28 0,2.448 0.648,4.0920003 2.4,5.28 L 3.732,8.832 C 1.8000001,7.824 0.54,5.916 0.54,3.24 Z"
                 id="path8695" />
            </g>
          </g>
        </g>
        <g
           transform="translate(296.99,8.688)"
           id="g3219">
          <g
             class="typst-text"
             transform="scale(1,-1)"
             id="g873">
            <g
               id="g1453">
              <path
                 d="m 9.432,0 0.072,0.36 c -0.852,0 -1.08,0.192 -0.9,1.068 L 9.624001,6.432 C 9.816,7.32 10.044,7.524 10.896,7.524 l 0.072,0.3600003 H 8.7 L 5.04,1.812 H 4.992 L 3.696,7.8840003 h -2.4 L 1.224,7.524 c 0.948,0 1.092,-0.204 0.9,-1.104 L 1.176,1.752 C 0.924,0.51600003 0.72,0.36 -0.204,0.36 L -0.276,0 H 2.496 L 2.568,0.36 C 1.656,0.36 1.512,0.51600003 1.764,1.752 L 2.76,6.6 H 2.808 L 4.26,0 H 4.524 L 8.556,6.612 H 8.604 L 7.5360003,1.428 C 7.356,0.552 7.188,0.36 6.3,0.36 L 6.228,0 Z"
                 id="path7390" />
            </g>
          </g>
        </g>
        <g
           transform="translate(307.958,8.832)"
           id="g1358">
          <g
             class="typst-text"
             transform="scale(1,-1)"
             id="g9718">
            <g
               id="g1500">
              <path
                 d="m 3.744,3.24 c 0,2.676 -1.26,4.584 -3.192,5.592 L 0.36,8.52 c 1.752,-1.1879997 2.4,-2.832 2.4,-5.28 0,-2.448 -0.648,-4.092 -2.4,-5.28 l 0.192,-0.312 c 1.932,1.008 3.192,2.916 3.192,5.592 z"
                 id="path5336" />
            </g>
          </g>
        </g>
      </g>
    </g>
  </g>
</svg>
